<svg width="150" height="40" viewBox="0 0 150 40" fill="none" xmlns="http://www.w3.org/2000/svg">
<path d="M0 0H130C141.046 0 150 8.95431 150 20C150 31.0457 141.046 40 130 40H0V0Z" fill="#03A9F4"/>
<path d="M51.6734 22.132L50.2654 18.284C50.1961 18.1133 50.1241 17.9107 50.0494 17.676C49.9748 17.4413 49.9001 17.188 49.8254 16.916C49.7561 17.188 49.6841 17.444 49.6094 17.684C49.5348 17.9187 49.4628 18.124 49.3934 18.3L47.9934 22.132H51.6734ZM55.4734 26.5H53.8094C53.6228 26.5 53.4708 26.4547 53.3534 26.364C53.2361 26.268 53.1481 26.1507 53.0894 26.012L52.2254 23.652H47.4334L46.5694 26.012C46.5268 26.1347 46.4441 26.2467 46.3214 26.348C46.1988 26.4493 46.0468 26.5 45.8654 26.5H44.1854L48.7374 14.932H50.9294L55.4734 26.5ZM58.5948 26.628C57.8801 26.628 57.3308 26.428 56.9468 26.028C56.5681 25.6227 56.3788 25.0653 56.3788 24.356V19.772H55.5388C55.4321 19.772 55.3415 19.7373 55.2668 19.668C55.1921 19.5987 55.1548 19.4947 55.1548 19.356V18.572L56.4748 18.356L56.8908 16.116C56.9175 16.0093 56.9681 15.9267 57.0428 15.868C57.1175 15.8093 57.2135 15.78 57.3308 15.78H58.3548V18.364H60.5468V19.772H58.3548V24.22C58.3548 24.476 58.4161 24.676 58.5388 24.82C58.6668 24.964 58.8401 25.036 59.0588 25.036C59.1815 25.036 59.2828 25.0227 59.3628 24.996C59.4481 24.964 59.5201 24.932 59.5788 24.9C59.6428 24.868 59.6988 24.8387 59.7468 24.812C59.7948 24.78 59.8428 24.764 59.8908 24.764C59.9495 24.764 59.9975 24.78 60.0348 24.812C60.0721 24.8387 60.1121 24.8813 60.1548 24.94L60.7468 25.9C60.4588 26.14 60.1281 26.3213 59.7548 26.444C59.3815 26.5667 58.9948 26.628 58.5948 26.628ZM65.3814 18.164C65.9894 18.164 66.5414 18.2627 67.0374 18.46C67.5388 18.6573 67.9654 18.9373 68.3174 19.3C68.6748 19.6627 68.9494 20.1053 69.1414 20.628C69.3334 21.1507 69.4294 21.7347 69.4294 22.38C69.4294 23.0307 69.3334 23.6173 69.1414 24.14C68.9494 24.6627 68.6748 25.108 68.3174 25.476C67.9654 25.844 67.5388 26.1267 67.0374 26.324C66.5414 26.5213 65.9894 26.62 65.3814 26.62C64.7681 26.62 64.2108 26.5213 63.7094 26.324C63.2081 26.1267 62.7788 25.844 62.4214 25.476C62.0694 25.108 61.7948 24.6627 61.5974 24.14C61.4054 23.6173 61.3094 23.0307 61.3094 22.38C61.3094 21.7347 61.4054 21.1507 61.5974 20.628C61.7948 20.1053 62.0694 19.6627 62.4214 19.3C62.7788 18.9373 63.2081 18.6573 63.7094 18.46C64.2108 18.2627 64.7681 18.164 65.3814 18.164ZM65.3814 25.1C66.0641 25.1 66.5681 24.8707 66.8934 24.412C67.2241 23.9533 67.3894 23.2813 67.3894 22.396C67.3894 21.5107 67.2241 20.836 66.8934 20.372C66.5681 19.908 66.0641 19.676 65.3814 19.676C64.6881 19.676 64.1734 19.9107 63.8374 20.38C63.5068 20.844 63.3414 21.516 63.3414 22.396C63.3414 23.276 63.5068 23.948 63.8374 24.412C64.1734 24.8707 64.6881 25.1 65.3814 25.1ZM78.8576 15.724C78.8576 15.9693 78.7882 16.1933 78.6496 16.396L72.7136 24.78H78.7216V26.5H69.9216V25.652C69.9216 25.5453 69.9402 25.444 69.9776 25.348C70.0149 25.2467 70.0629 25.1533 70.1216 25.068L76.0736 16.644H70.2976V14.932H78.8576V15.724ZM94.2197 14.932V26.5H92.0597V21.444H86.6277V26.5H84.4677V14.932H86.6277V19.908H92.0597V14.932H94.2197ZM99.8658 18.164C100.474 18.164 101.026 18.2627 101.522 18.46C102.023 18.6573 102.45 18.9373 102.802 19.3C103.159 19.6627 103.434 20.1053 103.626 20.628C103.818 21.1507 103.914 21.7347 103.914 22.38C103.914 23.0307 103.818 23.6173 103.626 24.14C103.434 24.6627 103.159 25.108 102.802 25.476C102.45 25.844 102.023 26.1267 101.522 26.324C101.026 26.5213 100.474 26.62 99.8658 26.62C99.2525 26.62 98.6951 26.5213 98.1938 26.324C97.6925 26.1267 97.2631 25.844 96.9058 25.476C96.5538 25.108 96.2791 24.6627 96.0818 24.14C95.8898 23.6173 95.7938 23.0307 95.7938 22.38C95.7938 21.7347 95.8898 21.1507 96.0818 20.628C96.2791 20.1053 96.5538 19.6627 96.9058 19.3C97.2631 18.9373 97.6925 18.6573 98.1938 18.46C98.6951 18.2627 99.2525 18.164 99.8658 18.164ZM99.8658 25.1C100.548 25.1 101.052 24.8707 101.378 24.412C101.708 23.9533 101.874 23.2813 101.874 22.396C101.874 21.5107 101.708 20.836 101.378 20.372C101.052 19.908 100.548 19.676 99.8658 19.676C99.1725 19.676 98.6578 19.9107 98.3218 20.38C97.9911 20.844 97.8258 21.516 97.8258 22.396C97.8258 23.276 97.9911 23.948 98.3218 24.412C98.6578 24.8707 99.1725 25.1 99.8658 25.1ZM108.001 26.628C107.286 26.628 106.737 26.428 106.353 26.028C105.974 25.6227 105.785 25.0653 105.785 24.356V19.772H104.945C104.838 19.772 104.748 19.7373 104.673 19.668C104.598 19.5987 104.561 19.4947 104.561 19.356V18.572L105.881 18.356L106.297 16.116C106.324 16.0093 106.374 15.9267 106.449 15.868C106.524 15.8093 106.62 15.78 106.737 15.78H107.761V18.364H109.953V19.772H107.761V24.22C107.761 24.476 107.822 24.676 107.945 24.82C108.073 24.964 108.246 25.036 108.465 25.036C108.588 25.036 108.689 25.0227 108.769 24.996C108.854 24.964 108.926 24.932 108.985 24.9C109.049 24.868 109.105 24.8387 109.153 24.812C109.201 24.78 109.249 24.764 109.297 24.764C109.356 24.764 109.404 24.78 109.441 24.812C109.478 24.8387 109.518 24.8813 109.561 24.94L110.153 25.9C109.865 26.14 109.534 26.3213 109.161 26.444C108.788 26.5667 108.401 26.628 108.001 26.628ZM116.444 21.452C116.444 21.196 116.406 20.956 116.332 20.732C116.262 20.5027 116.156 20.3027 116.012 20.132C115.868 19.9613 115.684 19.828 115.46 19.732C115.241 19.6307 114.985 19.58 114.692 19.58C114.121 19.58 113.67 19.7427 113.34 20.068C113.014 20.3933 112.806 20.8547 112.716 21.452H116.444ZM112.676 22.644C112.708 23.0653 112.782 23.4307 112.9 23.74C113.017 24.044 113.172 24.2973 113.364 24.5C113.556 24.6973 113.782 24.8467 114.044 24.948C114.31 25.044 114.604 25.092 114.924 25.092C115.244 25.092 115.518 25.0547 115.748 24.98C115.982 24.9053 116.185 24.8227 116.356 24.732C116.532 24.6413 116.684 24.5587 116.812 24.484C116.945 24.4093 117.073 24.372 117.196 24.372C117.361 24.372 117.484 24.4333 117.564 24.556L118.132 25.276C117.913 25.532 117.668 25.748 117.396 25.924C117.124 26.0947 116.838 26.2333 116.54 26.34C116.246 26.4413 115.945 26.5133 115.636 26.556C115.332 26.5987 115.036 26.62 114.748 26.62C114.177 26.62 113.646 26.5267 113.156 26.34C112.665 26.148 112.238 25.868 111.876 25.5C111.513 25.1267 111.228 24.668 111.02 24.124C110.812 23.5747 110.708 22.94 110.708 22.22C110.708 21.66 110.798 21.1347 110.98 20.644C111.161 20.148 111.42 19.7187 111.756 19.356C112.097 18.988 112.51 18.6973 112.996 18.484C113.486 18.2707 114.038 18.164 114.652 18.164C115.169 18.164 115.646 18.2467 116.084 18.412C116.521 18.5773 116.897 18.82 117.212 19.14C117.526 19.4547 117.772 19.844 117.948 20.308C118.129 20.7667 118.22 21.292 118.22 21.884C118.22 22.1827 118.188 22.3853 118.124 22.492C118.06 22.5933 117.937 22.644 117.756 22.644H112.676ZM121.703 14.612V26.5H119.727V14.612H121.703ZM128.679 19.892C128.626 19.9773 128.57 20.0387 128.511 20.076C128.453 20.108 128.378 20.124 128.287 20.124C128.191 20.124 128.087 20.0973 127.975 20.044C127.869 19.9907 127.743 19.932 127.599 19.868C127.455 19.7987 127.29 19.7373 127.103 19.684C126.922 19.6307 126.706 19.604 126.455 19.604C126.066 19.604 125.759 19.6867 125.535 19.852C125.317 20.0173 125.207 20.2333 125.207 20.5C125.207 20.676 125.263 20.8253 125.375 20.948C125.493 21.0653 125.645 21.1693 125.831 21.26C126.023 21.3507 126.239 21.4333 126.479 21.508C126.719 21.5773 126.962 21.6547 127.207 21.74C127.458 21.8253 127.703 21.924 127.943 22.036C128.183 22.1427 128.397 22.2813 128.583 22.452C128.775 22.6173 128.927 22.8173 129.039 23.052C129.157 23.2867 129.215 23.5693 129.215 23.9C129.215 24.2947 129.143 24.66 128.999 24.996C128.861 25.3267 128.653 25.6147 128.375 25.86C128.098 26.1 127.754 26.2893 127.343 26.428C126.938 26.5613 126.469 26.628 125.935 26.628C125.653 26.628 125.375 26.6013 125.103 26.548C124.837 26.5 124.578 26.4307 124.327 26.34C124.082 26.2493 123.853 26.1427 123.639 26.02C123.431 25.8973 123.247 25.764 123.087 25.62L123.543 24.868C123.602 24.7773 123.671 24.708 123.751 24.66C123.831 24.612 123.933 24.588 124.055 24.588C124.178 24.588 124.293 24.6227 124.399 24.692C124.511 24.7613 124.639 24.836 124.783 24.916C124.927 24.996 125.095 25.0707 125.287 25.14C125.485 25.2093 125.733 25.244 126.031 25.244C126.266 25.244 126.466 25.2173 126.631 25.164C126.802 25.1053 126.941 25.0307 127.047 24.94C127.159 24.8493 127.239 24.7453 127.287 24.628C127.341 24.5053 127.367 24.38 127.367 24.252C127.367 24.06 127.309 23.9027 127.191 23.78C127.079 23.6573 126.927 23.5507 126.735 23.46C126.549 23.3693 126.333 23.2893 126.087 23.22C125.847 23.1453 125.599 23.0653 125.343 22.98C125.093 22.8947 124.845 22.796 124.599 22.684C124.359 22.5667 124.143 22.42 123.951 22.244C123.765 22.068 123.613 21.852 123.495 21.596C123.383 21.34 123.327 21.0307 123.327 20.668C123.327 20.332 123.394 20.012 123.527 19.708C123.661 19.404 123.855 19.14 124.111 18.916C124.373 18.6867 124.695 18.5053 125.079 18.372C125.469 18.2333 125.917 18.164 126.423 18.164C126.989 18.164 127.503 18.2573 127.967 18.444C128.431 18.6307 128.818 18.876 129.127 19.18L128.679 19.892Z" fill="white"/>
</svg>
