<svg width="380" height="117" viewBox="0 0 380 117" fill="none" xmlns="http://www.w3.org/2000/svg">
<rect width="380" height="117" rx="10" fill="#F5F5F5"/>
<path d="M42.539 32.111C42.653 32.111 42.752 32.156 42.836 32.246L43.673 33.155C43.145 33.791 42.497 34.283 41.729 34.631C40.961 34.973 40.043 35.144 38.975 35.144C38.027 35.144 37.169 34.982 36.401 34.658C35.639 34.328 34.988 33.872 34.448 33.29C33.908 32.702 33.491 32.003 33.197 31.193C32.909 30.383 32.765 29.492 32.765 28.52C32.765 27.548 32.918 26.657 33.224 25.847C33.536 25.031 33.971 24.332 34.529 23.75C35.093 23.162 35.765 22.706 36.545 22.382C37.331 22.058 38.195 21.896 39.137 21.896C40.073 21.896 40.898 22.049 41.612 22.355C42.332 22.655 42.956 23.057 43.484 23.561L42.791 24.542C42.743 24.608 42.686 24.665 42.62 24.713C42.554 24.761 42.464 24.785 42.35 24.785C42.23 24.785 42.092 24.731 41.936 24.623C41.786 24.509 41.591 24.386 41.351 24.254C41.117 24.116 40.82 23.993 40.46 23.885C40.106 23.771 39.662 23.714 39.128 23.714C38.51 23.714 37.943 23.822 37.427 24.038C36.911 24.254 36.467 24.569 36.095 24.983C35.723 25.397 35.432 25.901 35.222 26.495C35.018 27.089 34.916 27.764 34.916 28.52C34.916 29.282 35.024 29.963 35.24 30.563C35.456 31.157 35.753 31.661 36.131 32.075C36.509 32.483 36.953 32.795 37.463 33.011C37.973 33.227 38.522 33.335 39.11 33.335C39.47 33.335 39.791 33.317 40.073 33.281C40.361 33.239 40.625 33.176 40.865 33.092C41.105 33.002 41.33 32.891 41.54 32.759C41.756 32.627 41.969 32.465 42.179 32.273C42.299 32.165 42.419 32.111 42.539 32.111ZM47.2671 26.909C47.6451 26.537 48.0591 26.24 48.5091 26.018C48.9591 25.79 49.4841 25.676 50.0841 25.676C50.5881 25.676 51.0291 25.76 51.4071 25.928C51.7911 26.096 52.1121 26.333 52.3701 26.639C52.6341 26.945 52.8321 27.314 52.9641 27.746C53.0961 28.172 53.1621 28.643 53.1621 29.159V35H51.2361V29.159C51.2361 28.541 51.0921 28.061 50.8041 27.719C50.5221 27.377 50.0901 27.206 49.5081 27.206C49.0761 27.206 48.6741 27.305 48.3021 27.503C47.9361 27.701 47.5911 27.971 47.2671 28.313V35H45.3321V21.68H47.2671V26.909ZM61.643 29.375C61.643 29.051 61.595 28.751 61.499 28.475C61.409 28.193 61.274 27.95 61.094 27.746C60.914 27.536 60.689 27.374 60.419 27.26C60.155 27.14 59.849 27.08 59.501 27.08C58.799 27.08 58.247 27.281 57.845 27.683C57.443 28.085 57.188 28.649 57.08 29.375H61.643ZM57.026 30.563C57.05 31.085 57.131 31.538 57.269 31.922C57.407 32.3 57.59 32.615 57.818 32.867C58.052 33.119 58.328 33.308 58.646 33.434C58.97 33.554 59.33 33.614 59.726 33.614C60.104 33.614 60.431 33.572 60.707 33.488C60.983 33.398 61.223 33.302 61.427 33.2C61.631 33.092 61.805 32.996 61.949 32.912C62.093 32.822 62.225 32.777 62.345 32.777C62.501 32.777 62.621 32.837 62.705 32.957L63.254 33.668C63.026 33.938 62.768 34.166 62.48 34.352C62.192 34.538 61.886 34.691 61.562 34.811C61.238 34.925 60.905 35.006 60.563 35.054C60.221 35.108 59.888 35.135 59.564 35.135C58.928 35.135 58.337 35.03 57.791 34.82C57.251 34.604 56.78 34.289 56.378 33.875C55.982 33.461 55.67 32.948 55.442 32.336C55.22 31.724 55.109 31.019 55.109 30.221C55.109 29.585 55.208 28.991 55.406 28.439C55.61 27.887 55.898 27.407 56.27 26.999C56.648 26.591 57.104 26.27 57.638 26.036C58.178 25.796 58.787 25.676 59.465 25.676C60.029 25.676 60.551 25.769 61.031 25.955C61.511 26.135 61.925 26.402 62.273 26.756C62.621 27.11 62.891 27.545 63.083 28.061C63.281 28.571 63.38 29.153 63.38 29.807C63.38 30.107 63.347 30.308 63.281 30.41C63.215 30.512 63.095 30.563 62.921 30.563H57.026ZM71.8735 27.62C71.8135 27.698 71.7565 27.758 71.7025 27.8C71.6485 27.842 71.5705 27.863 71.4685 27.863C71.3665 27.863 71.2585 27.827 71.1445 27.755C71.0365 27.683 70.9045 27.605 70.7485 27.521C70.5985 27.431 70.4155 27.35 70.1995 27.278C69.9835 27.206 69.7135 27.17 69.3895 27.17C68.9695 27.17 68.6005 27.245 68.2825 27.395C67.9705 27.545 67.7065 27.761 67.4905 28.043C67.2805 28.319 67.1215 28.658 67.0135 29.06C66.9115 29.456 66.8605 29.903 66.8605 30.401C66.8605 30.917 66.9175 31.376 67.0315 31.778C67.1455 32.18 67.3075 32.519 67.5175 32.795C67.7335 33.071 67.9915 33.281 68.2915 33.425C68.5975 33.569 68.9395 33.641 69.3175 33.641C69.6895 33.641 69.9925 33.596 70.2265 33.506C70.4605 33.416 70.6555 33.317 70.8115 33.209C70.9675 33.101 71.0995 33.002 71.2075 32.912C71.3215 32.822 71.4415 32.777 71.5675 32.777C71.7235 32.777 71.8435 32.837 71.9275 32.957L72.4765 33.668C72.2545 33.938 72.0085 34.166 71.7385 34.352C71.4685 34.538 71.1835 34.691 70.8835 34.811C70.5835 34.925 70.2715 35.006 69.9475 35.054C69.6235 35.108 69.2965 35.135 68.9665 35.135C68.3965 35.135 67.8625 35.03 67.3645 34.82C66.8725 34.604 66.4405 34.295 66.0685 33.893C65.7025 33.485 65.4115 32.99 65.1955 32.408C64.9855 31.82 64.8805 31.151 64.8805 30.401C64.8805 29.723 64.9765 29.096 65.1685 28.52C65.3605 27.938 65.6395 27.437 66.0055 27.017C66.3775 26.597 66.8365 26.27 67.3825 26.036C67.9285 25.796 68.5585 25.676 69.2725 25.676C69.9385 25.676 70.5235 25.784 71.0275 26C71.5375 26.216 71.9905 26.522 72.3865 26.918L71.8735 27.62ZM76.1679 21.68V29.402H76.5819C76.7139 29.402 76.8219 29.384 76.9059 29.348C76.9899 29.312 77.0769 29.237 77.1669 29.123L79.7409 26.18C79.8309 26.06 79.9299 25.97 80.0379 25.91C80.1459 25.85 80.2839 25.82 80.4519 25.82H82.2069L79.1109 29.312C78.9309 29.546 78.7329 29.732 78.5169 29.87C78.6369 29.954 78.7419 30.05 78.8319 30.158C78.9219 30.26 79.0089 30.377 79.0929 30.509L82.3959 35H80.6679C80.5119 35 80.3769 34.976 80.2629 34.928C80.1549 34.874 80.0589 34.778 79.9749 34.64L77.3199 31.04C77.2299 30.902 77.1399 30.815 77.0499 30.779C76.9599 30.737 76.8249 30.716 76.6449 30.716H76.1679V35H74.2329V21.68H76.1679ZM83.3425 28.763H87.9055V30.401H83.3425V28.763ZM92.3638 25.82V35H90.4288V25.82H92.3638ZM92.6878 23.048C92.6878 23.222 92.6518 23.387 92.5798 23.543C92.5138 23.699 92.4208 23.837 92.3008 23.957C92.1808 24.071 92.0398 24.164 91.8778 24.236C91.7218 24.302 91.5538 24.335 91.3738 24.335C91.1998 24.335 91.0348 24.302 90.8788 24.236C90.7288 24.164 90.5968 24.071 90.4828 23.957C90.3688 23.837 90.2758 23.699 90.2038 23.543C90.1378 23.387 90.1048 23.222 90.1048 23.048C90.1048 22.868 90.1378 22.7 90.2038 22.544C90.2758 22.388 90.3688 22.253 90.4828 22.139C90.5968 22.019 90.7288 21.926 90.8788 21.86C91.0348 21.788 91.1998 21.752 91.3738 21.752C91.5538 21.752 91.7218 21.788 91.8778 21.86C92.0398 21.926 92.1808 22.019 92.3008 22.139C92.4208 22.253 92.5138 22.388 92.5798 22.544C92.6518 22.7 92.6878 22.868 92.6878 23.048ZM96.804 27.035C97.002 26.831 97.206 26.648 97.416 26.486C97.632 26.318 97.86 26.174 98.1 26.054C98.34 25.934 98.595 25.841 98.865 25.775C99.135 25.709 99.429 25.676 99.747 25.676C100.251 25.676 100.692 25.76 101.07 25.928C101.454 26.096 101.775 26.333 102.033 26.639C102.297 26.945 102.495 27.314 102.627 27.746C102.759 28.172 102.825 28.643 102.825 29.159V35H100.899V29.159C100.899 28.541 100.755 28.061 100.467 27.719C100.185 27.377 99.753 27.206 99.171 27.206C98.739 27.206 98.337 27.305 97.965 27.503C97.599 27.701 97.254 27.971 96.93 28.313V35H94.995V25.82H96.165C96.429 25.82 96.597 25.943 96.669 26.189L96.804 27.035Z" fill="#153B63"/>
<path d="M244.539 32.111C244.653 32.111 244.752 32.156 244.836 32.246L245.673 33.155C245.145 33.791 244.497 34.283 243.729 34.631C242.961 34.973 242.043 35.144 240.975 35.144C240.027 35.144 239.169 34.982 238.401 34.658C237.639 34.328 236.988 33.872 236.448 33.29C235.908 32.702 235.491 32.003 235.197 31.193C234.909 30.383 234.765 29.492 234.765 28.52C234.765 27.548 234.918 26.657 235.224 25.847C235.536 25.031 235.971 24.332 236.529 23.75C237.093 23.162 237.765 22.706 238.545 22.382C239.331 22.058 240.195 21.896 241.137 21.896C242.073 21.896 242.898 22.049 243.612 22.355C244.332 22.655 244.956 23.057 245.484 23.561L244.791 24.542C244.743 24.608 244.686 24.665 244.62 24.713C244.554 24.761 244.464 24.785 244.35 24.785C244.23 24.785 244.092 24.731 243.936 24.623C243.786 24.509 243.591 24.386 243.351 24.254C243.117 24.116 242.82 23.993 242.46 23.885C242.106 23.771 241.662 23.714 241.128 23.714C240.51 23.714 239.943 23.822 239.427 24.038C238.911 24.254 238.467 24.569 238.095 24.983C237.723 25.397 237.432 25.901 237.222 26.495C237.018 27.089 236.916 27.764 236.916 28.52C236.916 29.282 237.024 29.963 237.24 30.563C237.456 31.157 237.753 31.661 238.131 32.075C238.509 32.483 238.953 32.795 239.463 33.011C239.973 33.227 240.522 33.335 241.11 33.335C241.47 33.335 241.791 33.317 242.073 33.281C242.361 33.239 242.625 33.176 242.865 33.092C243.105 33.002 243.33 32.891 243.54 32.759C243.756 32.627 243.969 32.465 244.179 32.273C244.299 32.165 244.419 32.111 244.539 32.111ZM249.267 26.909C249.645 26.537 250.059 26.24 250.509 26.018C250.959 25.79 251.484 25.676 252.084 25.676C252.588 25.676 253.029 25.76 253.407 25.928C253.791 26.096 254.112 26.333 254.37 26.639C254.634 26.945 254.832 27.314 254.964 27.746C255.096 28.172 255.162 28.643 255.162 29.159V35H253.236V29.159C253.236 28.541 253.092 28.061 252.804 27.719C252.522 27.377 252.09 27.206 251.508 27.206C251.076 27.206 250.674 27.305 250.302 27.503C249.936 27.701 249.591 27.971 249.267 28.313V35H247.332V21.68H249.267V26.909ZM263.643 29.375C263.643 29.051 263.595 28.751 263.499 28.475C263.409 28.193 263.274 27.95 263.094 27.746C262.914 27.536 262.689 27.374 262.419 27.26C262.155 27.14 261.849 27.08 261.501 27.08C260.799 27.08 260.247 27.281 259.845 27.683C259.443 28.085 259.188 28.649 259.08 29.375H263.643ZM259.026 30.563C259.05 31.085 259.131 31.538 259.269 31.922C259.407 32.3 259.59 32.615 259.818 32.867C260.052 33.119 260.328 33.308 260.646 33.434C260.97 33.554 261.33 33.614 261.726 33.614C262.104 33.614 262.431 33.572 262.707 33.488C262.983 33.398 263.223 33.302 263.427 33.2C263.631 33.092 263.805 32.996 263.949 32.912C264.093 32.822 264.225 32.777 264.345 32.777C264.501 32.777 264.621 32.837 264.705 32.957L265.254 33.668C265.026 33.938 264.768 34.166 264.48 34.352C264.192 34.538 263.886 34.691 263.562 34.811C263.238 34.925 262.905 35.006 262.563 35.054C262.221 35.108 261.888 35.135 261.564 35.135C260.928 35.135 260.337 35.03 259.791 34.82C259.251 34.604 258.78 34.289 258.378 33.875C257.982 33.461 257.67 32.948 257.442 32.336C257.22 31.724 257.109 31.019 257.109 30.221C257.109 29.585 257.208 28.991 257.406 28.439C257.61 27.887 257.898 27.407 258.27 26.999C258.648 26.591 259.104 26.27 259.638 26.036C260.178 25.796 260.787 25.676 261.465 25.676C262.029 25.676 262.551 25.769 263.031 25.955C263.511 26.135 263.925 26.402 264.273 26.756C264.621 27.11 264.891 27.545 265.083 28.061C265.281 28.571 265.38 29.153 265.38 29.807C265.38 30.107 265.347 30.308 265.281 30.41C265.215 30.512 265.095 30.563 264.921 30.563H259.026ZM273.873 27.62C273.813 27.698 273.756 27.758 273.702 27.8C273.648 27.842 273.57 27.863 273.468 27.863C273.366 27.863 273.258 27.827 273.144 27.755C273.036 27.683 272.904 27.605 272.748 27.521C272.598 27.431 272.415 27.35 272.199 27.278C271.983 27.206 271.713 27.17 271.389 27.17C270.969 27.17 270.6 27.245 270.282 27.395C269.97 27.545 269.706 27.761 269.49 28.043C269.28 28.319 269.121 28.658 269.013 29.06C268.911 29.456 268.86 29.903 268.86 30.401C268.86 30.917 268.917 31.376 269.031 31.778C269.145 32.18 269.307 32.519 269.517 32.795C269.733 33.071 269.991 33.281 270.291 33.425C270.597 33.569 270.939 33.641 271.317 33.641C271.689 33.641 271.992 33.596 272.226 33.506C272.46 33.416 272.655 33.317 272.811 33.209C272.967 33.101 273.099 33.002 273.207 32.912C273.321 32.822 273.441 32.777 273.567 32.777C273.723 32.777 273.843 32.837 273.927 32.957L274.476 33.668C274.254 33.938 274.008 34.166 273.738 34.352C273.468 34.538 273.183 34.691 272.883 34.811C272.583 34.925 272.271 35.006 271.947 35.054C271.623 35.108 271.296 35.135 270.966 35.135C270.396 35.135 269.862 35.03 269.364 34.82C268.872 34.604 268.44 34.295 268.068 33.893C267.702 33.485 267.411 32.99 267.195 32.408C266.985 31.82 266.88 31.151 266.88 30.401C266.88 29.723 266.976 29.096 267.168 28.52C267.36 27.938 267.639 27.437 268.005 27.017C268.377 26.597 268.836 26.27 269.382 26.036C269.928 25.796 270.558 25.676 271.272 25.676C271.938 25.676 272.523 25.784 273.027 26C273.537 26.216 273.99 26.522 274.386 26.918L273.873 27.62ZM278.168 21.68V29.402H278.582C278.714 29.402 278.822 29.384 278.906 29.348C278.99 29.312 279.077 29.237 279.167 29.123L281.741 26.18C281.831 26.06 281.93 25.97 282.038 25.91C282.146 25.85 282.284 25.82 282.452 25.82H284.207L281.111 29.312C280.931 29.546 280.733 29.732 280.517 29.87C280.637 29.954 280.742 30.05 280.832 30.158C280.922 30.26 281.009 30.377 281.093 30.509L284.396 35H282.668C282.512 35 282.377 34.976 282.263 34.928C282.155 34.874 282.059 34.778 281.975 34.64L279.32 31.04C279.23 30.902 279.14 30.815 279.05 30.779C278.96 30.737 278.825 30.716 278.645 30.716H278.168V35H276.233V21.68H278.168ZM285.342 28.763H289.905V30.401H285.342V28.763ZM296.317 25.676C296.995 25.676 297.607 25.787 298.153 26.009C298.705 26.231 299.173 26.546 299.557 26.954C299.947 27.362 300.247 27.857 300.457 28.439C300.667 29.021 300.772 29.675 300.772 30.401C300.772 31.127 300.667 31.781 300.457 32.363C300.247 32.945 299.947 33.443 299.557 33.857C299.173 34.265 298.705 34.58 298.153 34.802C297.607 35.024 296.995 35.135 296.317 35.135C295.633 35.135 295.015 35.024 294.463 34.802C293.917 34.58 293.449 34.265 293.059 33.857C292.669 33.443 292.369 32.945 292.159 32.363C291.949 31.781 291.844 31.127 291.844 30.401C291.844 29.675 291.949 29.021 292.159 28.439C292.369 27.857 292.669 27.362 293.059 26.954C293.449 26.546 293.917 26.231 294.463 26.009C295.015 25.787 295.633 25.676 296.317 25.676ZM296.317 33.623C297.145 33.623 297.76 33.347 298.162 32.795C298.57 32.237 298.774 31.442 298.774 30.41C298.774 29.378 298.57 28.583 298.162 28.025C297.76 27.461 297.145 27.179 296.317 27.179C295.477 27.179 294.853 27.461 294.445 28.025C294.037 28.583 293.833 29.378 293.833 30.41C293.833 31.442 294.037 32.237 294.445 32.795C294.853 33.347 295.477 33.623 296.317 33.623ZM310.571 25.82V35H309.401C309.143 35 308.978 34.877 308.906 34.631L308.762 33.776C308.57 33.98 308.366 34.166 308.15 34.334C307.94 34.502 307.715 34.646 307.475 34.766C307.235 34.886 306.977 34.979 306.701 35.045C306.431 35.111 306.14 35.144 305.828 35.144C305.324 35.144 304.88 35.06 304.496 34.892C304.112 34.724 303.788 34.487 303.524 34.181C303.266 33.875 303.071 33.509 302.939 33.083C302.807 32.651 302.741 32.177 302.741 31.661V25.82H304.676V31.661C304.676 32.279 304.817 32.759 305.099 33.101C305.387 33.443 305.822 33.614 306.404 33.614C306.83 33.614 307.226 33.518 307.592 33.326C307.964 33.128 308.312 32.858 308.636 32.516V25.82H310.571ZM316.064 35.144C315.302 35.144 314.714 34.931 314.3 34.505C313.892 34.073 313.688 33.467 313.688 32.687V27.341H312.68C312.572 27.341 312.479 27.308 312.401 27.242C312.323 27.17 312.284 27.065 312.284 26.927V26.144L313.769 25.928L314.192 23.273C314.222 23.171 314.273 23.09 314.345 23.03C314.417 22.964 314.513 22.931 314.633 22.931H315.623V25.946H318.17V27.341H315.623V32.552C315.623 32.882 315.704 33.134 315.866 33.308C316.028 33.482 316.244 33.569 316.514 33.569C316.664 33.569 316.793 33.551 316.901 33.515C317.009 33.473 317.102 33.431 317.18 33.389C317.258 33.341 317.324 33.299 317.378 33.263C317.438 33.221 317.495 33.2 317.549 33.2C317.657 33.2 317.744 33.26 317.81 33.38L318.386 34.325C318.086 34.589 317.732 34.793 317.324 34.937C316.916 35.075 316.496 35.144 316.064 35.144Z" fill="#153B63"/>
<path d="M52.7 90.3V94H36.7V90.3H42.56V73.44C42.56 72.7733 42.58 72.0867 42.62 71.38L38.46 74.86C38.22 75.0467 37.98 75.1667 37.74 75.22C37.5133 75.26 37.2933 75.26 37.08 75.22C36.88 75.18 36.7 75.1133 36.54 75.02C36.38 74.9133 36.26 74.8 36.18 74.68L34.62 72.54L43.44 65.04H47.5V90.3H52.7ZM65.6431 75.58L64.6431 76.82C65.2031 76.54 65.8031 76.3267 66.4431 76.18C67.0965 76.02 67.7965 75.94 68.5431 75.94C69.6365 75.94 70.6965 76.12 71.7231 76.48C72.7631 76.84 73.6765 77.3867 74.4631 78.12C75.2498 78.84 75.8831 79.74 76.3631 80.82C76.8431 81.9 77.0831 83.16 77.0831 84.6C77.0831 85.9467 76.8365 87.2133 76.3431 88.4C75.8498 89.5733 75.1565 90.6 74.2631 91.48C73.3698 92.36 72.2898 93.0533 71.0231 93.56C69.7698 94.0667 68.3831 94.32 66.8631 94.32C65.3165 94.32 63.9298 94.0733 62.7031 93.58C61.4765 93.0867 60.4298 92.4 59.5631 91.52C58.6965 90.6267 58.0298 89.56 57.5631 88.32C57.1098 87.0667 56.8831 85.68 56.8831 84.16C56.8831 82.8 57.1565 81.4067 57.7031 79.98C58.2631 78.54 59.1231 77.0467 60.2831 75.5L67.1831 66.24C67.4231 65.92 67.7698 65.6467 68.2231 65.42C68.6898 65.1933 69.2231 65.08 69.8231 65.08H74.2231L65.6431 75.58ZM66.7631 90.28C67.5498 90.28 68.2698 90.1467 68.9231 89.88C69.5898 89.6133 70.1565 89.24 70.6231 88.76C71.1031 88.28 71.4765 87.72 71.7431 87.08C72.0098 86.4267 72.1431 85.72 72.1431 84.96C72.1431 84.1333 72.0165 83.3933 71.7631 82.74C71.5098 82.0733 71.1498 81.5133 70.6831 81.06C70.2165 80.5933 69.6565 80.24 69.0031 80C68.3498 79.76 67.6298 79.64 66.8431 79.64C66.0565 79.64 65.3431 79.7733 64.7031 80.04C64.0631 80.3067 63.5165 80.68 63.0631 81.16C62.6098 81.6267 62.2565 82.1867 62.0031 82.84C61.7498 83.48 61.6231 84.1733 61.6231 84.92C61.6231 85.72 61.7298 86.4533 61.9431 87.12C62.1698 87.7733 62.4965 88.3333 62.9231 88.8C63.3631 89.2667 63.9031 89.6333 64.5431 89.9C65.1831 90.1533 65.9231 90.28 66.7631 90.28Z" fill="#153B63"/>
<path d="M95.833 62.0469V72H94.5342V62.0469H95.833ZM99.0322 62.0469V63.127H91.3418V62.0469H99.0322ZM104.387 70.291V64.6035H105.658V72H104.448L104.387 70.291ZM104.626 68.7324L105.152 68.7188C105.152 69.2109 105.1 69.6667 104.995 70.0859C104.895 70.5007 104.731 70.8607 104.503 71.166C104.275 71.4714 103.976 71.7106 103.607 71.8838C103.238 72.0524 102.789 72.1367 102.261 72.1367C101.901 72.1367 101.57 72.0843 101.269 71.9795C100.973 71.8747 100.718 71.7129 100.504 71.4941C100.29 71.2754 100.123 70.9906 100.005 70.6396C99.8908 70.2887 99.8338 69.8672 99.8338 69.375V64.6035H101.098V69.3887C101.098 69.7214 101.135 69.9971 101.208 70.2158C101.285 70.43 101.388 70.6009 101.515 70.7285C101.648 70.8516 101.793 70.9382 101.953 70.9883C102.117 71.0384 102.286 71.0635 102.459 71.0635C102.997 71.0635 103.423 70.9609 103.737 70.7559C104.052 70.5462 104.277 70.266 104.414 69.915C104.555 69.5596 104.626 69.1654 104.626 68.7324ZM110.855 72.1367C110.34 72.1367 109.873 72.0501 109.454 71.877C109.039 71.6992 108.681 71.4508 108.38 71.1318C108.084 70.8128 107.856 70.4346 107.697 69.9971C107.537 69.5596 107.458 69.0811 107.458 68.5615V68.2744C107.458 67.6729 107.546 67.1374 107.724 66.668C107.902 66.194 108.143 65.793 108.449 65.4648C108.754 65.1367 109.101 64.8883 109.488 64.7197C109.875 64.5511 110.276 64.4668 110.691 64.4668C111.22 64.4668 111.675 64.5579 112.058 64.7402C112.446 64.9225 112.762 65.1777 113.008 65.5059C113.254 65.8294 113.437 66.2122 113.555 66.6543C113.674 67.0918 113.733 67.5703 113.733 68.0898V68.6572H108.21V67.625H112.468V67.5293C112.45 67.2012 112.382 66.8822 112.263 66.5723C112.149 66.2624 111.967 66.0072 111.716 65.8066C111.466 65.6061 111.124 65.5059 110.691 65.5059C110.404 65.5059 110.14 65.5674 109.898 65.6904C109.657 65.8089 109.449 65.9867 109.276 66.2236C109.103 66.4606 108.968 66.75 108.873 67.0918C108.777 67.4336 108.729 67.8278 108.729 68.2744V68.5615C108.729 68.9124 108.777 69.2428 108.873 69.5527C108.973 69.8581 109.116 70.127 109.303 70.3594C109.495 70.5918 109.725 70.7741 109.994 70.9062C110.267 71.0384 110.577 71.1045 110.923 71.1045C111.37 71.1045 111.748 71.0133 112.058 70.8311C112.368 70.6488 112.639 70.4049 112.872 70.0996L113.637 70.708C113.478 70.9495 113.275 71.1797 113.029 71.3984C112.783 71.6172 112.48 71.7949 112.12 71.9316C111.764 72.0684 111.343 72.1367 110.855 72.1367Z" fill="#03A9F4"/>
<path d="M93.4746 86.0469V96H92.1553V86.0469H93.4746ZM97.6445 90.5244V91.6045H93.1875V90.5244H97.6445ZM98.3213 86.0469V87.127H93.1875V86.0469H98.3213ZM102.821 96.1367C102.306 96.1367 101.839 96.0501 101.42 95.877C101.005 95.6992 100.647 95.4508 100.346 95.1318C100.05 94.8128 99.8224 94.4346 99.6629 93.9971C99.5034 93.5596 99.4236 93.0811 99.4236 92.5615V92.2744C99.4236 91.6729 99.5125 91.1374 99.6902 90.668C99.868 90.194 100.11 89.793 100.415 89.4648C100.72 89.1367 101.067 88.8883 101.454 88.7197C101.841 88.5511 102.242 88.4668 102.657 88.4668C103.186 88.4668 103.641 88.5579 104.024 88.7402C104.412 88.9225 104.728 89.1777 104.974 89.5059C105.221 89.8294 105.403 90.2122 105.521 90.6543C105.64 91.0918 105.699 91.5703 105.699 92.0898V92.6572H100.176V91.625H104.434V91.5293C104.416 91.2012 104.348 90.8822 104.229 90.5723C104.115 90.2624 103.933 90.0072 103.682 89.8066C103.432 89.6061 103.09 89.5059 102.657 89.5059C102.37 89.5059 102.106 89.5674 101.864 89.6904C101.623 89.8089 101.415 89.9867 101.242 90.2236C101.069 90.4606 100.934 90.75 100.839 91.0918C100.743 91.4336 100.695 91.8278 100.695 92.2744V92.5615C100.695 92.9124 100.743 93.2428 100.839 93.5527C100.939 93.8581 101.082 94.127 101.269 94.3594C101.461 94.5918 101.691 94.7741 101.96 94.9062C102.233 95.0384 102.543 95.1045 102.889 95.1045C103.336 95.1045 103.714 95.0133 104.024 94.8311C104.334 94.6488 104.605 94.4049 104.838 94.0996L105.603 94.708C105.444 94.9495 105.241 95.1797 104.995 95.3984C104.749 95.6172 104.446 95.7949 104.086 95.9316C103.73 96.0684 103.309 96.1367 102.821 96.1367ZM107.369 85.5H108.64V94.5645L108.531 96H107.369V85.5ZM113.637 92.2402V92.3838C113.637 92.9215 113.574 93.4206 113.446 93.8809C113.318 94.3366 113.131 94.7331 112.885 95.0703C112.639 95.4076 112.338 95.6696 111.983 95.8564C111.628 96.0433 111.22 96.1367 110.759 96.1367C110.29 96.1367 109.878 96.057 109.522 95.8975C109.171 95.7334 108.875 95.4987 108.633 95.1934C108.392 94.888 108.198 94.5189 108.052 94.0859C107.911 93.653 107.813 93.1654 107.758 92.623V91.9941C107.813 91.4473 107.911 90.9574 108.052 90.5244C108.198 90.0915 108.392 89.7223 108.633 89.417C108.875 89.1071 109.171 88.8724 109.522 88.7129C109.873 88.5488 110.281 88.4668 110.746 88.4668C111.211 88.4668 111.623 88.5579 111.983 88.7402C112.343 88.918 112.644 89.1732 112.885 89.5059C113.131 89.8385 113.318 90.2373 113.446 90.7021C113.574 91.1624 113.637 91.6751 113.637 92.2402ZM112.366 92.3838V92.2402C112.366 91.8711 112.332 91.5247 112.263 91.2012C112.195 90.873 112.086 90.5859 111.935 90.3398C111.785 90.0892 111.587 89.8932 111.34 89.752C111.094 89.6061 110.791 89.5332 110.431 89.5332C110.112 89.5332 109.834 89.5879 109.597 89.6973C109.365 89.8066 109.167 89.9548 109.003 90.1416C108.838 90.3239 108.704 90.5335 108.599 90.7705C108.499 91.0029 108.424 91.2445 108.374 91.4951V93.1426C108.447 93.4616 108.565 93.7692 108.729 94.0654C108.898 94.3571 109.121 94.5964 109.399 94.7832C109.682 94.9701 110.03 95.0635 110.445 95.0635C110.787 95.0635 111.078 94.9951 111.32 94.8584C111.566 94.7171 111.764 94.5234 111.915 94.2773C112.07 94.0312 112.184 93.7464 112.256 93.4229C112.329 93.0993 112.366 92.7529 112.366 92.3838Z" fill="#03A9F4"/>
<path d="M129.98 76.3134C130.157 76.1359 130.435 76.1198 130.631 76.265L130.687 76.3134L135 80.6263L139.313 76.3134C139.491 76.1359 139.769 76.1198 139.964 76.265L140.02 76.3134C140.198 76.4909 140.214 76.7687 140.069 76.9645L140.02 77.0205L135.354 81.6872C135.176 81.8647 134.898 81.8809 134.703 81.7356L134.647 81.6872L129.98 77.0205C129.785 76.8253 129.785 76.5087 129.98 76.3134Z" fill="#153B63"/>
<path d="M182 78.7256C182 78.3459 182.282 78.0321 182.648 77.9824L182.75 77.9756H197.75C198.164 77.9756 198.5 78.3114 198.5 78.7256C198.5 79.1053 198.218 79.4191 197.852 79.4687L197.75 79.4756H182.75C182.336 79.4756 182 79.1398 182 78.7256Z" fill="#153B63"/>
<path d="M191.171 73.2325C190.877 72.9402 190.876 72.4653 191.169 72.1718C191.434 71.905 191.851 71.8799 192.145 72.0971L192.229 72.1695L198.279 78.1935C198.547 78.46 198.571 78.8781 198.352 79.1722L198.279 79.2564L192.229 85.2814C191.936 85.5737 191.461 85.5727 191.169 85.2792C190.903 85.0124 190.88 84.5957 191.098 84.3025L191.171 84.2186L196.687 78.7247L191.171 73.2325Z" fill="#153B63"/>
<path d="M253.62 89.4C254.153 89.4 254.573 89.5533 254.88 89.86C255.2 90.1533 255.36 90.5467 255.36 91.04V94H235.52V92.36C235.52 92.0267 235.587 91.68 235.72 91.32C235.867 90.9467 236.093 90.6133 236.4 90.32L245.18 81.52C245.913 80.7733 246.567 80.06 247.14 79.38C247.727 78.7 248.213 78.0267 248.6 77.36C248.987 76.6933 249.28 76.02 249.48 75.34C249.693 74.6467 249.8 73.92 249.8 73.16C249.8 72.4667 249.7 71.86 249.5 71.34C249.3 70.8067 249.013 70.36 248.64 70C248.28 69.64 247.84 69.3733 247.32 69.2C246.813 69.0133 246.24 68.92 245.6 68.92C245.013 68.92 244.467 69.0067 243.96 69.18C243.467 69.34 243.027 69.5733 242.64 69.88C242.253 70.1733 241.927 70.52 241.66 70.92C241.393 71.32 241.193 71.76 241.06 72.24C240.833 72.8533 240.54 73.26 240.18 73.46C239.82 73.66 239.3 73.7067 238.62 73.6L236.02 73.14C236.22 71.7533 236.607 70.54 237.18 69.5C237.753 68.4467 238.467 67.5733 239.32 66.88C240.187 66.1733 241.173 65.6467 242.28 65.3C243.4 64.94 244.6 64.76 245.88 64.76C247.213 64.76 248.433 64.96 249.54 65.36C250.647 65.7467 251.593 66.3 252.38 67.02C253.167 67.74 253.78 68.6067 254.22 69.62C254.66 70.6333 254.88 71.76 254.88 73C254.88 74.0667 254.72 75.0533 254.4 75.96C254.093 76.8667 253.673 77.7333 253.14 78.56C252.62 79.3867 252.007 80.1867 251.3 80.96C250.593 81.7333 249.853 82.52 249.08 83.32L242.56 89.98C243.187 89.7933 243.807 89.6533 244.42 89.56C245.047 89.4533 245.64 89.4 246.2 89.4H253.62ZM279.403 79.54C279.403 82.06 279.13 84.2533 278.583 86.12C278.05 87.9733 277.303 89.5067 276.343 90.72C275.396 91.9333 274.27 92.84 272.963 93.44C271.67 94.0267 270.27 94.32 268.763 94.32C267.256 94.32 265.856 94.0267 264.563 93.44C263.283 92.84 262.17 91.9333 261.223 90.72C260.276 89.5067 259.536 87.9733 259.003 86.12C258.47 84.2533 258.203 82.06 258.203 79.54C258.203 77.0067 258.47 74.8133 259.003 72.96C259.536 71.1067 260.276 69.5733 261.223 68.36C262.17 67.1467 263.283 66.2467 264.563 65.66C265.856 65.06 267.256 64.76 268.763 64.76C270.27 64.76 271.67 65.06 272.963 65.66C274.27 66.2467 275.396 67.1467 276.343 68.36C277.303 69.5733 278.05 71.1067 278.583 72.96C279.13 74.8133 279.403 77.0067 279.403 79.54ZM274.303 79.54C274.303 77.4467 274.15 75.7133 273.843 74.34C273.536 72.9667 273.123 71.8733 272.603 71.06C272.096 70.2467 271.51 69.68 270.843 69.36C270.176 69.0267 269.483 68.86 268.763 68.86C268.056 68.86 267.37 69.0267 266.703 69.36C266.05 69.68 265.47 70.2467 264.963 71.06C264.456 71.8733 264.05 72.9667 263.743 74.34C263.45 75.7133 263.303 77.4467 263.303 79.54C263.303 81.6333 263.45 83.3667 263.743 84.74C264.05 86.1133 264.456 87.2067 264.963 88.02C265.47 88.8333 266.05 89.4067 266.703 89.74C267.37 90.06 268.056 90.22 268.763 90.22C269.483 90.22 270.176 90.06 270.843 89.74C271.51 89.4067 272.096 88.8333 272.603 88.02C273.123 87.2067 273.536 86.1133 273.843 84.74C274.15 83.3667 274.303 81.6333 274.303 79.54Z" fill="#153B63"/>
<path d="M299.46 69.4844C299.46 69.252 299.424 69.0469 299.351 68.8691C299.282 68.6868 299.159 68.5228 298.981 68.377C298.808 68.2311 298.567 68.0921 298.257 67.96C297.951 67.8278 297.564 67.6934 297.095 67.5566C296.603 67.4108 296.158 67.249 295.762 67.0713C295.365 66.889 295.026 66.6816 294.743 66.4492C294.461 66.2168 294.244 65.9502 294.094 65.6494C293.943 65.3486 293.868 65.0046 293.868 64.6172C293.868 64.2298 293.948 63.8721 294.107 63.5439C294.267 63.2158 294.495 62.931 294.791 62.6895C295.092 62.4434 295.45 62.252 295.864 62.1152C296.279 61.9785 296.742 61.9102 297.252 61.9102C297.999 61.9102 298.633 62.0537 299.152 62.3408C299.676 62.6234 300.075 62.9948 300.349 63.4551C300.622 63.9108 300.759 64.3984 300.759 64.918H299.446C299.446 64.5443 299.367 64.2139 299.207 63.9268C299.048 63.6351 298.806 63.4072 298.482 63.2432C298.159 63.0745 297.749 62.9902 297.252 62.9902C296.783 62.9902 296.395 63.0609 296.09 63.2021C295.785 63.3434 295.557 63.5348 295.406 63.7764C295.26 64.0179 295.188 64.2936 295.188 64.6035C295.188 64.8132 295.231 65.0046 295.317 65.1777C295.409 65.3464 295.548 65.5036 295.734 65.6494C295.926 65.7952 296.167 65.9297 296.459 66.0527C296.755 66.1758 297.108 66.2943 297.519 66.4082C298.084 66.5677 298.571 66.7454 298.981 66.9414C299.392 67.1374 299.729 67.3584 299.993 67.6045C300.262 67.846 300.46 68.1217 300.588 68.4316C300.72 68.737 300.786 69.0833 300.786 69.4707C300.786 69.8763 300.704 70.2432 300.54 70.5713C300.376 70.8994 300.141 71.1797 299.836 71.4121C299.531 71.6445 299.164 71.8245 298.735 71.9521C298.312 72.0752 297.838 72.1367 297.313 72.1367C296.853 72.1367 296.4 72.0729 295.953 71.9453C295.511 71.8177 295.108 71.6263 294.743 71.3711C294.383 71.1159 294.094 70.8014 293.875 70.4277C293.661 70.0495 293.554 69.612 293.554 69.1152H294.866C294.866 69.457 294.932 69.751 295.064 69.9971C295.197 70.2386 295.377 70.4391 295.604 70.5986C295.837 70.7581 296.099 70.8766 296.391 70.9541C296.687 71.027 296.994 71.0635 297.313 71.0635C297.774 71.0635 298.163 70.9997 298.482 70.8721C298.801 70.7445 299.043 70.5622 299.207 70.3252C299.376 70.0882 299.46 69.8079 299.46 69.4844ZM306.838 70.7354V66.9277C306.838 66.6361 306.778 66.3831 306.66 66.1689C306.546 65.9502 306.373 65.7816 306.14 65.6631C305.908 65.5446 305.621 65.4854 305.279 65.4854C304.96 65.4854 304.68 65.54 304.438 65.6494C304.201 65.7588 304.014 65.9023 303.878 66.0801C303.746 66.2578 303.679 66.4492 303.679 66.6543H302.415C302.415 66.39 302.483 66.1279 302.62 65.8682C302.757 65.6084 302.953 65.3737 303.208 65.1641C303.468 64.9499 303.777 64.7812 304.137 64.6582C304.502 64.5306 304.908 64.4668 305.354 64.4668C305.892 64.4668 306.366 64.5579 306.776 64.7402C307.191 64.9225 307.514 65.1982 307.747 65.5674C307.984 65.932 308.102 66.39 308.102 66.9414V70.3867C308.102 70.6328 308.123 70.8949 308.164 71.1729C308.209 71.4508 308.276 71.6901 308.362 71.8906V72H307.043C306.979 71.8542 306.929 71.6605 306.892 71.4189C306.856 71.1729 306.838 70.945 306.838 70.7354ZM307.056 67.5156L307.07 68.4043H305.792C305.432 68.4043 305.11 68.4339 304.828 68.4932C304.545 68.5479 304.308 68.6322 304.117 68.7461C303.926 68.86 303.78 69.0036 303.679 69.1768C303.579 69.3454 303.529 69.5436 303.529 69.7715C303.529 70.0039 303.582 70.2158 303.686 70.4072C303.791 70.5986 303.948 70.7513 304.158 70.8652C304.372 70.9746 304.634 71.0293 304.944 71.0293C305.332 71.0293 305.673 70.9473 305.97 70.7832C306.266 70.6191 306.5 70.4186 306.674 70.1816C306.851 69.9447 306.947 69.7145 306.961 69.4912L307.501 70.0996C307.469 70.291 307.382 70.5029 307.241 70.7354C307.1 70.9678 306.911 71.1911 306.674 71.4053C306.441 71.6149 306.163 71.7904 305.84 71.9316C305.521 72.0684 305.161 72.1367 304.76 72.1367C304.258 72.1367 303.818 72.0387 303.44 71.8428C303.067 71.6468 302.775 71.3848 302.565 71.0566C302.36 70.724 302.258 70.3525 302.258 69.9424C302.258 69.5459 302.335 69.1973 302.49 68.8965C302.645 68.5911 302.868 68.3382 303.16 68.1377C303.452 67.9326 303.803 67.7777 304.213 67.6729C304.623 67.568 305.081 67.5156 305.587 67.5156H307.056ZM313.388 64.6035V65.5742H309.389V64.6035H313.388ZM310.743 62.8057H312.007V70.168C312.007 70.4186 312.046 70.6077 312.124 70.7354C312.201 70.863 312.301 70.9473 312.424 70.9883C312.547 71.0293 312.68 71.0498 312.821 71.0498C312.926 71.0498 313.035 71.0407 313.149 71.0225C313.268 70.9997 313.356 70.9814 313.416 70.9678L313.422 72C313.322 72.0319 313.19 72.0615 313.026 72.0889C312.866 72.1208 312.673 72.1367 312.445 72.1367C312.135 72.1367 311.85 72.0752 311.59 71.9521C311.331 71.8291 311.123 71.624 310.968 71.3369C310.818 71.0452 310.743 70.6533 310.743 70.1611V62.8057Z" fill="#03A9F4"/>
<path d="M295.475 86.0469V96H294.155V86.0469H295.475ZM299.645 90.5244V91.6045H295.188V90.5244H299.645ZM300.321 86.0469V87.127H295.188V86.0469H300.321ZM304.821 96.1367C304.306 96.1367 303.839 96.0501 303.42 95.877C303.005 95.6992 302.647 95.4508 302.346 95.1318C302.05 94.8128 301.822 94.4346 301.663 93.9971C301.503 93.5596 301.424 93.0811 301.424 92.5615V92.2744C301.424 91.6729 301.512 91.1374 301.69 90.668C301.868 90.194 302.11 89.793 302.415 89.4648C302.72 89.1367 303.067 88.8883 303.454 88.7197C303.841 88.5511 304.242 88.4668 304.657 88.4668C305.186 88.4668 305.641 88.5579 306.024 88.7402C306.412 88.9225 306.728 89.1777 306.974 89.5059C307.221 89.8294 307.403 90.2122 307.521 90.6543C307.64 91.0918 307.699 91.5703 307.699 92.0898V92.6572H302.176V91.625H306.434V91.5293C306.416 91.2012 306.348 90.8822 306.229 90.5723C306.115 90.2624 305.933 90.0072 305.682 89.8066C305.432 89.6061 305.09 89.5059 304.657 89.5059C304.37 89.5059 304.106 89.5674 303.864 89.6904C303.623 89.8089 303.415 89.9867 303.242 90.2236C303.069 90.4606 302.934 90.75 302.839 91.0918C302.743 91.4336 302.695 91.8278 302.695 92.2744V92.5615C302.695 92.9124 302.743 93.2428 302.839 93.5527C302.939 93.8581 303.082 94.127 303.269 94.3594C303.461 94.5918 303.691 94.7741 303.96 94.9062C304.233 95.0384 304.543 95.1045 304.889 95.1045C305.336 95.1045 305.714 95.0133 306.024 94.8311C306.334 94.6488 306.605 94.4049 306.838 94.0996L307.603 94.708C307.444 94.9495 307.241 95.1797 306.995 95.3984C306.749 95.6172 306.446 95.7949 306.086 95.9316C305.73 96.0684 305.309 96.1367 304.821 96.1367ZM309.369 85.5H310.64V94.5645L310.531 96H309.369V85.5ZM315.637 92.2402V92.3838C315.637 92.9215 315.574 93.4206 315.446 93.8809C315.318 94.3366 315.131 94.7331 314.885 95.0703C314.639 95.4076 314.338 95.6696 313.983 95.8564C313.628 96.0433 313.22 96.1367 312.759 96.1367C312.29 96.1367 311.878 96.057 311.522 95.8975C311.171 95.7334 310.875 95.4987 310.633 95.1934C310.392 94.888 310.198 94.5189 310.052 94.0859C309.911 93.653 309.813 93.1654 309.758 92.623V91.9941C309.813 91.4473 309.911 90.9574 310.052 90.5244C310.198 90.0915 310.392 89.7223 310.633 89.417C310.875 89.1071 311.171 88.8724 311.522 88.7129C311.873 88.5488 312.281 88.4668 312.746 88.4668C313.211 88.4668 313.623 88.5579 313.983 88.7402C314.343 88.918 314.644 89.1732 314.885 89.5059C315.131 89.8385 315.318 90.2373 315.446 90.7021C315.574 91.1624 315.637 91.6751 315.637 92.2402ZM314.366 92.3838V92.2402C314.366 91.8711 314.332 91.5247 314.263 91.2012C314.195 90.873 314.086 90.5859 313.935 90.3398C313.785 90.0892 313.587 89.8932 313.34 89.752C313.094 89.6061 312.791 89.5332 312.431 89.5332C312.112 89.5332 311.834 89.5879 311.597 89.6973C311.365 89.8066 311.167 89.9548 311.003 90.1416C310.838 90.3239 310.704 90.5335 310.599 90.7705C310.499 91.0029 310.424 91.2445 310.374 91.4951V93.1426C310.447 93.4616 310.565 93.7692 310.729 94.0654C310.898 94.3571 311.121 94.5964 311.399 94.7832C311.682 94.9701 312.03 95.0635 312.445 95.0635C312.787 95.0635 313.078 94.9951 313.32 94.8584C313.566 94.7171 313.764 94.5234 313.915 94.2773C314.07 94.0312 314.184 93.7464 314.256 93.4229C314.329 93.0993 314.366 92.7529 314.366 92.3838Z" fill="#03A9F4"/>
<path d="M331.98 76.3134C332.157 76.1359 332.435 76.1198 332.631 76.265L332.687 76.3134L337 80.6263L341.313 76.3134C341.491 76.1359 341.769 76.1198 341.964 76.265L342.02 76.3134C342.198 76.4909 342.214 76.7687 342.069 76.9645L342.02 77.0205L337.354 81.6872C337.176 81.8647 336.898 81.8809 336.703 81.7356L336.647 81.6872L331.98 77.0205C331.785 76.8253 331.785 76.5087 331.98 76.3134Z" fill="#153B63"/>
</svg>
