<svg width="380" height="58" viewBox="0 0 380 58" fill="none" xmlns="http://www.w3.org/2000/svg">
<rect width="380" height="58" rx="10" fill="#03A9F4"/>
<path d="M172.995 25.536C172.931 25.648 172.862 25.7307 172.787 25.784C172.718 25.832 172.63 25.856 172.523 25.856C172.411 25.856 172.288 25.816 172.155 25.736C172.027 25.6507 171.872 25.5573 171.691 25.456C171.51 25.3547 171.296 25.264 171.051 25.184C170.811 25.0987 170.526 25.056 170.195 25.056C169.896 25.056 169.635 25.0933 169.411 25.168C169.187 25.2373 168.998 25.336 168.843 25.464C168.694 25.592 168.582 25.7467 168.507 25.928C168.432 26.104 168.395 26.2987 168.395 26.512C168.395 26.784 168.47 27.0107 168.619 27.192C168.774 27.3733 168.976 27.528 169.227 27.656C169.478 27.784 169.763 27.8987 170.083 28C170.403 28.1013 170.731 28.2107 171.067 28.328C171.403 28.44 171.731 28.5733 172.051 28.728C172.371 28.8773 172.656 29.0693 172.907 29.304C173.158 29.5333 173.358 29.816 173.507 30.152C173.662 30.488 173.739 30.896 173.739 31.376C173.739 31.8987 173.648 32.3893 173.467 32.848C173.291 33.3013 173.03 33.6987 172.683 34.04C172.342 34.376 171.923 34.6427 171.427 34.84C170.931 35.032 170.363 35.128 169.723 35.128C169.355 35.128 168.992 35.0907 168.635 35.016C168.278 34.9467 167.934 34.8453 167.603 34.712C167.278 34.5787 166.971 34.4187 166.683 34.232C166.395 34.0453 166.139 33.8373 165.915 33.608L166.547 32.576C166.6 32.5013 166.67 32.44 166.755 32.392C166.84 32.3387 166.931 32.312 167.027 32.312C167.16 32.312 167.304 32.368 167.459 32.48C167.614 32.5867 167.798 32.7067 168.011 32.84C168.224 32.9733 168.472 33.096 168.755 33.208C169.043 33.3147 169.387 33.368 169.787 33.368C170.4 33.368 170.875 33.224 171.211 32.936C171.547 32.6427 171.715 32.224 171.715 31.68C171.715 31.376 171.638 31.128 171.483 30.936C171.334 30.744 171.134 30.584 170.883 30.456C170.632 30.3227 170.347 30.2107 170.027 30.12C169.707 30.0293 169.382 29.9307 169.051 29.824C168.72 29.7173 168.395 29.5893 168.075 29.44C167.755 29.2907 167.47 29.096 167.219 28.856C166.968 28.616 166.766 28.3173 166.611 27.96C166.462 27.5973 166.387 27.152 166.387 26.624C166.387 26.2027 166.47 25.792 166.635 25.392C166.806 24.992 167.051 24.6373 167.371 24.328C167.691 24.0187 168.086 23.7707 168.555 23.584C169.024 23.3973 169.563 23.304 170.171 23.304C170.854 23.304 171.483 23.4107 172.059 23.624C172.635 23.8373 173.126 24.136 173.531 24.52L172.995 25.536ZM180.761 29.952C180.761 29.696 180.724 29.456 180.649 29.232C180.58 29.0027 180.473 28.8027 180.329 28.632C180.185 28.4613 180.001 28.328 179.777 28.232C179.558 28.1307 179.302 28.08 179.009 28.08C178.438 28.08 177.988 28.2427 177.657 28.568C177.332 28.8933 177.124 29.3547 177.033 29.952H180.761ZM176.993 31.144C177.025 31.5653 177.1 31.9307 177.217 32.24C177.334 32.544 177.489 32.7973 177.681 33C177.873 33.1973 178.1 33.3467 178.361 33.448C178.628 33.544 178.921 33.592 179.241 33.592C179.561 33.592 179.836 33.5547 180.065 33.48C180.3 33.4053 180.502 33.3227 180.673 33.232C180.849 33.1413 181.001 33.0587 181.129 32.984C181.262 32.9093 181.39 32.872 181.513 32.872C181.678 32.872 181.801 32.9333 181.881 33.056L182.449 33.776C182.23 34.032 181.985 34.248 181.713 34.424C181.441 34.5947 181.156 34.7333 180.857 34.84C180.564 34.9413 180.262 35.0133 179.953 35.056C179.649 35.0987 179.353 35.12 179.065 35.12C178.494 35.12 177.964 35.0267 177.473 34.84C176.982 34.648 176.556 34.368 176.193 34C175.83 33.6267 175.545 33.168 175.337 32.624C175.129 32.0747 175.025 31.44 175.025 30.72C175.025 30.16 175.116 29.6347 175.297 29.144C175.478 28.648 175.737 28.2187 176.073 27.856C176.414 27.488 176.828 27.1973 177.313 26.984C177.804 26.7707 178.356 26.664 178.969 26.664C179.486 26.664 179.964 26.7467 180.401 26.912C180.838 27.0773 181.214 27.32 181.529 27.64C181.844 27.9547 182.089 28.344 182.265 28.808C182.446 29.2667 182.537 29.792 182.537 30.384C182.537 30.6827 182.505 30.8853 182.441 30.992C182.377 31.0933 182.254 31.144 182.073 31.144H176.993ZM188.556 31.496C187.985 31.5227 187.505 31.5733 187.116 31.648C186.726 31.7173 186.414 31.808 186.18 31.92C185.945 32.032 185.777 32.1627 185.676 32.312C185.574 32.4613 185.524 32.624 185.524 32.8C185.524 33.1467 185.625 33.3947 185.828 33.544C186.036 33.6933 186.305 33.768 186.636 33.768C187.041 33.768 187.39 33.696 187.684 33.552C187.982 33.4027 188.273 33.1787 188.556 32.88V31.496ZM184.028 27.936C184.972 27.072 186.108 26.64 187.436 26.64C187.916 26.64 188.345 26.72 188.724 26.88C189.102 27.0347 189.422 27.2533 189.684 27.536C189.945 27.8133 190.142 28.1467 190.276 28.536C190.414 28.9253 190.484 29.352 190.484 29.816V35H189.588C189.401 35 189.257 34.9733 189.156 34.92C189.054 34.8613 188.974 34.7467 188.916 34.576L188.74 33.984C188.532 34.1707 188.329 34.336 188.132 34.48C187.934 34.6187 187.729 34.736 187.516 34.832C187.302 34.928 187.073 35 186.828 35.048C186.588 35.1013 186.321 35.128 186.028 35.128C185.681 35.128 185.361 35.0827 185.068 34.992C184.774 34.896 184.521 34.7547 184.308 34.568C184.094 34.3813 183.929 34.1493 183.812 33.872C183.694 33.5947 183.636 33.272 183.636 32.904C183.636 32.696 183.67 32.4907 183.74 32.288C183.809 32.08 183.921 31.8827 184.076 31.696C184.236 31.5093 184.441 31.3333 184.692 31.168C184.942 31.0027 185.249 30.8587 185.612 30.736C185.98 30.6133 186.406 30.5147 186.892 30.44C187.377 30.36 187.932 30.312 188.556 30.296V29.816C188.556 29.2667 188.438 28.8613 188.204 28.6C187.969 28.3333 187.63 28.2 187.188 28.2C186.868 28.2 186.601 28.2373 186.388 28.312C186.18 28.3867 185.996 28.472 185.836 28.568C185.676 28.6587 185.529 28.7413 185.396 28.816C185.268 28.8907 185.124 28.928 184.964 28.928C184.825 28.928 184.708 28.8933 184.612 28.824C184.516 28.7493 184.438 28.664 184.38 28.568L184.028 27.936ZM194.409 28.216C194.665 27.7253 194.969 27.3413 195.321 27.064C195.673 26.7813 196.089 26.64 196.569 26.64C196.947 26.64 197.251 26.7227 197.481 26.888L197.353 28.368C197.326 28.464 197.286 28.5333 197.233 28.576C197.185 28.6133 197.118 28.632 197.033 28.632C196.953 28.632 196.833 28.6187 196.673 28.592C196.518 28.5653 196.366 28.552 196.217 28.552C195.998 28.552 195.803 28.584 195.633 28.648C195.462 28.712 195.307 28.8053 195.169 28.928C195.035 29.0453 194.915 29.1893 194.809 29.36C194.707 29.5307 194.611 29.7253 194.521 29.944V35H192.545V26.792H193.705C193.907 26.792 194.049 26.8293 194.129 26.904C194.209 26.9733 194.262 27.1013 194.289 27.288L194.409 28.216ZM204.359 28.528C204.3 28.6027 204.242 28.6613 204.183 28.704C204.13 28.7467 204.05 28.768 203.943 28.768C203.842 28.768 203.743 28.7387 203.647 28.68C203.551 28.616 203.436 28.5467 203.303 28.472C203.17 28.392 203.01 28.3227 202.823 28.264C202.642 28.2 202.415 28.168 202.143 28.168C201.796 28.168 201.492 28.232 201.231 28.36C200.97 28.4827 200.751 28.6613 200.575 28.896C200.404 29.1307 200.276 29.416 200.191 29.752C200.106 30.0827 200.063 30.4587 200.063 30.88C200.063 31.3173 200.108 31.7067 200.199 32.048C200.295 32.3893 200.431 32.6773 200.607 32.912C200.783 33.1413 200.996 33.3173 201.247 33.44C201.498 33.5573 201.78 33.616 202.095 33.616C202.41 33.616 202.663 33.5787 202.855 33.504C203.052 33.424 203.218 33.3387 203.351 33.248C203.484 33.152 203.599 33.0667 203.695 32.992C203.796 32.912 203.908 32.872 204.031 32.872C204.191 32.872 204.311 32.9333 204.391 33.056L204.959 33.776C204.74 34.032 204.503 34.248 204.247 34.424C203.991 34.5947 203.724 34.7333 203.447 34.84C203.175 34.9413 202.892 35.0133 202.599 35.056C202.311 35.0987 202.023 35.12 201.735 35.12C201.228 35.12 200.751 35.0267 200.303 34.84C199.855 34.648 199.463 34.3707 199.127 34.008C198.791 33.6453 198.524 33.2027 198.327 32.68C198.135 32.152 198.039 31.552 198.039 30.88C198.039 30.2773 198.124 29.72 198.295 29.208C198.471 28.6907 198.727 28.2453 199.063 27.872C199.399 27.4933 199.815 27.1973 200.311 26.984C200.807 26.7707 201.378 26.664 202.023 26.664C202.636 26.664 203.172 26.7627 203.631 26.96C204.095 27.1573 204.511 27.44 204.879 27.808L204.359 28.528ZM208.374 27.672C208.694 27.3733 209.046 27.1307 209.43 26.944C209.814 26.7573 210.265 26.664 210.782 26.664C211.23 26.664 211.627 26.7413 211.974 26.896C212.321 27.0453 212.609 27.2587 212.838 27.536C213.073 27.808 213.249 28.136 213.366 28.52C213.489 28.8987 213.55 29.3173 213.55 29.776V35H211.574V29.776C211.574 29.2747 211.459 28.888 211.23 28.616C211.001 28.3387 210.651 28.2 210.182 28.2C209.841 28.2 209.521 28.2773 209.222 28.432C208.923 28.5867 208.641 28.7973 208.374 29.064V35H206.398V23.112H208.374V27.672Z" fill="#FCFDFF"/>
</svg>
