<svg width="380" height="60" viewBox="0 0 380 60" fill="none" xmlns="http://www.w3.org/2000/svg">
<rect width="380" height="60" rx="10" fill="#FAFAFA"/>
<path fill-rule="evenodd" clip-rule="evenodd" d="M31.8435 26.4687C31.8435 28.6718 30.0406 30.4374 27.7909 30.4374C25.5421 30.4374 23.7384 28.6718 23.7384 26.4687C23.7384 24.2655 25.5421 22.5 27.7909 22.5C30.0406 22.5 31.8435 24.2655 31.8435 26.4687ZM21.6665 34.9311C21.6665 32.8917 24.4878 32.3814 27.7909 32.3814C31.1121 32.3814 33.9154 32.9093 33.9154 34.9503C33.9154 36.9897 31.0941 37.5 27.7909 37.5C24.4698 37.5 21.6665 36.9722 21.6665 34.9311ZM33.4777 26.5406C33.4777 27.6626 33.1336 28.7094 32.5302 29.579C32.4674 29.6685 32.5229 29.789 32.6321 29.8082C32.7838 29.8329 32.9395 29.8481 33.0985 29.8513C34.6804 29.892 36.1 28.8947 36.4922 27.3927C37.0736 25.164 35.3678 23.1629 33.1947 23.1629C32.9591 23.1629 32.7332 23.1868 32.5131 23.2307C32.4829 23.2371 32.4503 23.2515 32.434 23.277C32.4128 23.3098 32.4283 23.3521 32.4495 23.3801C33.1026 24.2768 33.4777 25.3684 33.4777 26.5406ZM36.0976 31.4186C37.1608 31.6222 37.8596 32.0366 38.1491 32.6411C38.3945 33.1362 38.3945 33.7112 38.1491 34.2062C37.7063 35.1421 36.2778 35.4432 35.7225 35.5206C35.6075 35.5366 35.5154 35.4408 35.5276 35.3274C35.8114 32.7338 33.5552 31.504 32.9713 31.2213C32.9469 31.2078 32.9412 31.1886 32.9436 31.1758C32.9452 31.1678 32.9558 31.1551 32.9746 31.1527C34.2376 31.1287 35.5961 31.2988 36.0976 31.4186Z" fill="#153B63"/>
<path d="M61.2109 32.4307H62.8984C62.8105 33.2393 62.5791 33.9629 62.2041 34.6016C61.8291 35.2402 61.2988 35.7471 60.6133 36.1221C59.9277 36.4912 59.0723 36.6758 58.0469 36.6758C57.2969 36.6758 56.6143 36.5352 55.999 36.2539C55.3896 35.9727 54.8652 35.5742 54.4258 35.0586C53.9863 34.5371 53.6465 33.9131 53.4062 33.1865C53.1719 32.4541 53.0547 31.6396 53.0547 30.7432V29.4688C53.0547 28.5723 53.1719 27.7607 53.4062 27.0342C53.6465 26.3018 53.9893 25.6748 54.4346 25.1533C54.8857 24.6318 55.4277 24.2305 56.0605 23.9492C56.6934 23.668 57.4053 23.5273 58.1963 23.5273C59.1631 23.5273 59.9805 23.709 60.6484 24.0723C61.3164 24.4355 61.835 24.9395 62.2041 25.584C62.5791 26.2227 62.8105 26.9639 62.8984 27.8076H61.2109C61.1289 27.21 60.9766 26.6973 60.7539 26.2695C60.5312 25.8359 60.2148 25.502 59.8047 25.2676C59.3945 25.0332 58.8584 24.916 58.1963 24.916C57.6279 24.916 57.127 25.0244 56.6934 25.2412C56.2656 25.458 55.9053 25.7656 55.6123 26.1641C55.3252 26.5625 55.1084 27.04 54.9619 27.5967C54.8154 28.1533 54.7422 28.7715 54.7422 29.4512V30.7432C54.7422 31.3701 54.8066 31.959 54.9355 32.5098C55.0703 33.0605 55.2725 33.5439 55.542 33.96C55.8115 34.376 56.1543 34.7041 56.5703 34.9443C56.9863 35.1787 57.4785 35.2959 58.0469 35.2959C58.7676 35.2959 59.3418 35.1816 59.7695 34.9531C60.1973 34.7246 60.5195 34.3965 60.7363 33.9688C60.959 33.541 61.1172 33.0283 61.2109 32.4307ZM66.7898 23V36.5H65.1639V23H66.7898ZM66.4031 31.3848L65.7264 31.3584C65.7322 30.708 65.8289 30.1074 66.0164 29.5566C66.2039 29 66.4676 28.5166 66.8074 28.1064C67.1473 27.6963 67.5516 27.3799 68.0203 27.1572C68.4949 26.9287 69.0193 26.8145 69.5936 26.8145C70.0623 26.8145 70.4842 26.8789 70.8592 27.0078C71.2342 27.1309 71.5535 27.3301 71.8172 27.6055C72.0867 27.8809 72.2918 28.2383 72.4324 28.6777C72.573 29.1113 72.6434 29.6416 72.6434 30.2686V36.5H71.0086V30.251C71.0086 29.7529 70.9354 29.3545 70.7889 29.0557C70.6424 28.751 70.4285 28.5312 70.1473 28.3965C69.866 28.2559 69.5203 28.1855 69.1102 28.1855C68.7059 28.1855 68.3367 28.2705 68.0027 28.4404C67.6746 28.6104 67.3904 28.8447 67.1502 29.1436C66.9158 29.4424 66.7312 29.7852 66.5965 30.1719C66.4676 30.5527 66.4031 30.957 66.4031 31.3848ZM74.8473 31.8506V31.6484C74.8473 30.9629 74.9469 30.3271 75.1461 29.7412C75.3453 29.1494 75.6324 28.6367 76.0074 28.2031C76.3824 27.7637 76.8365 27.4238 77.3697 27.1836C77.9029 26.9375 78.5006 26.8145 79.1627 26.8145C79.8307 26.8145 80.4312 26.9375 80.9645 27.1836C81.5035 27.4238 81.9605 27.7637 82.3355 28.2031C82.7164 28.6367 83.0064 29.1494 83.2057 29.7412C83.4049 30.3271 83.5045 30.9629 83.5045 31.6484V31.8506C83.5045 32.5361 83.4049 33.1719 83.2057 33.7578C83.0064 34.3438 82.7164 34.8564 82.3355 35.2959C81.9605 35.7295 81.5064 36.0693 80.9732 36.3154C80.4459 36.5557 79.8482 36.6758 79.1803 36.6758C78.5123 36.6758 77.9117 36.5557 77.3785 36.3154C76.8453 36.0693 76.3883 35.7295 76.0074 35.2959C75.6324 34.8564 75.3453 34.3438 75.1461 33.7578C74.9469 33.1719 74.8473 32.5361 74.8473 31.8506ZM76.4732 31.6484V31.8506C76.4732 32.3252 76.5289 32.7734 76.6402 33.1953C76.7516 33.6113 76.9186 33.9805 77.1412 34.3027C77.3697 34.625 77.6539 34.8799 77.9937 35.0674C78.3336 35.249 78.7291 35.3398 79.1803 35.3398C79.6256 35.3398 80.0152 35.249 80.3492 35.0674C80.6891 34.8799 80.9703 34.625 81.193 34.3027C81.4156 33.9805 81.5826 33.6113 81.6939 33.1953C81.8111 32.7734 81.8697 32.3252 81.8697 31.8506V31.6484C81.8697 31.1797 81.8111 30.7373 81.6939 30.3213C81.5826 29.8994 81.4127 29.5273 81.1842 29.2051C80.9615 28.877 80.6803 28.6191 80.3404 28.4316C80.0064 28.2441 79.6139 28.1504 79.1627 28.1504C78.7174 28.1504 78.3248 28.2441 77.985 28.4316C77.651 28.6191 77.3697 28.877 77.1412 29.2051C76.9186 29.5273 76.7516 29.8994 76.6402 30.3213C76.5289 30.7373 76.4732 31.1797 76.4732 31.6484ZM85.3129 31.8506V31.6484C85.3129 30.9629 85.4125 30.3271 85.6117 29.7412C85.8109 29.1494 86.098 28.6367 86.473 28.2031C86.848 27.7637 87.3021 27.4238 87.8354 27.1836C88.3686 26.9375 88.9662 26.8145 89.6283 26.8145C90.2963 26.8145 90.8969 26.9375 91.4301 27.1836C91.9691 27.4238 92.4262 27.7637 92.8012 28.2031C93.182 28.6367 93.4721 29.1494 93.6713 29.7412C93.8705 30.3271 93.9701 30.9629 93.9701 31.6484V31.8506C93.9701 32.5361 93.8705 33.1719 93.6713 33.7578C93.4721 34.3438 93.182 34.8564 92.8012 35.2959C92.4262 35.7295 91.9721 36.0693 91.4389 36.3154C90.9115 36.5557 90.3139 36.6758 89.6459 36.6758C88.9779 36.6758 88.3773 36.5557 87.8441 36.3154C87.3109 36.0693 86.8539 35.7295 86.473 35.2959C86.098 34.8564 85.8109 34.3438 85.6117 33.7578C85.4125 33.1719 85.3129 32.5361 85.3129 31.8506ZM86.9389 31.6484V31.8506C86.9389 32.3252 86.9945 32.7734 87.1059 33.1953C87.2172 33.6113 87.3842 33.9805 87.6068 34.3027C87.8354 34.625 88.1195 34.8799 88.4594 35.0674C88.7992 35.249 89.1947 35.3398 89.6459 35.3398C90.0912 35.3398 90.4809 35.249 90.8148 35.0674C91.1547 34.8799 91.4359 34.625 91.6586 34.3027C91.8812 33.9805 92.0482 33.6113 92.1596 33.1953C92.2768 32.7734 92.3354 32.3252 92.3354 31.8506V31.6484C92.3354 31.1797 92.2768 30.7373 92.1596 30.3213C92.0482 29.8994 91.8783 29.5273 91.6498 29.2051C91.4271 28.877 91.1459 28.6191 90.8061 28.4316C90.4721 28.2441 90.0795 28.1504 89.6283 28.1504C89.183 28.1504 88.7904 28.2441 88.4506 28.4316C88.1166 28.6191 87.8354 28.877 87.6068 29.2051C87.3842 29.5273 87.2172 29.8994 87.1059 30.3213C86.9945 30.7373 86.9389 31.1797 86.9389 31.6484ZM101.746 33.9775C101.746 33.7432 101.694 33.5264 101.588 33.3271C101.488 33.1221 101.28 32.9375 100.964 32.7734C100.654 32.6035 100.185 32.457 99.5578 32.334C99.0305 32.2227 98.5529 32.0908 98.1252 31.9385C97.7033 31.7861 97.343 31.6016 97.0441 31.3848C96.7512 31.168 96.5256 30.9131 96.3674 30.6201C96.2092 30.3271 96.1301 29.9844 96.1301 29.5918C96.1301 29.2168 96.2121 28.8623 96.3762 28.5283C96.5461 28.1943 96.7834 27.8984 97.0881 27.6406C97.3986 27.3828 97.7707 27.1807 98.2043 27.0342C98.6379 26.8877 99.1213 26.8145 99.6545 26.8145C100.416 26.8145 101.067 26.9492 101.606 27.2188C102.145 27.4883 102.558 27.8486 102.845 28.2998C103.132 28.7451 103.276 29.2402 103.276 29.7852H101.65C101.65 29.5215 101.571 29.2666 101.412 29.0205C101.26 28.7686 101.034 28.5605 100.736 28.3965C100.443 28.2324 100.082 28.1504 99.6545 28.1504C99.2033 28.1504 98.8371 28.2207 98.5559 28.3613C98.2805 28.4961 98.0783 28.6689 97.9494 28.8799C97.8264 29.0908 97.7648 29.3135 97.7648 29.5479C97.7648 29.7236 97.7941 29.8818 97.8527 30.0225C97.9172 30.1572 98.0285 30.2832 98.1867 30.4004C98.3449 30.5117 98.5676 30.6172 98.8547 30.7168C99.1418 30.8164 99.508 30.916 99.9533 31.0156C100.733 31.1914 101.374 31.4023 101.878 31.6484C102.382 31.8945 102.757 32.1963 103.003 32.5537C103.249 32.9111 103.372 33.3447 103.372 33.8545C103.372 34.2705 103.284 34.6514 103.109 34.9971C102.939 35.3428 102.69 35.6416 102.362 35.8936C102.039 36.1396 101.653 36.333 101.201 36.4736C100.756 36.6084 100.255 36.6758 99.6984 36.6758C98.8605 36.6758 98.1516 36.5264 97.5715 36.2275C96.9914 35.9287 96.552 35.542 96.2531 35.0674C95.9543 34.5928 95.8049 34.0918 95.8049 33.5645H97.4396C97.4631 34.0098 97.592 34.3643 97.8264 34.6279C98.0607 34.8857 98.3479 35.0703 98.6877 35.1816C99.0275 35.2871 99.3645 35.3398 99.6984 35.3398C100.144 35.3398 100.516 35.2812 100.815 35.1641C101.119 35.0469 101.351 34.8857 101.509 34.6807C101.667 34.4756 101.746 34.2412 101.746 33.9775ZM109.654 36.6758C108.992 36.6758 108.392 36.5645 107.853 36.3418C107.319 36.1133 106.859 35.7939 106.473 35.3838C106.092 34.9736 105.799 34.4873 105.594 33.9248C105.389 33.3623 105.286 32.7471 105.286 32.0791V31.71C105.286 30.9365 105.4 30.248 105.629 29.6445C105.857 29.0352 106.168 28.5195 106.561 28.0977C106.953 27.6758 107.398 27.3564 107.896 27.1396C108.395 26.9229 108.91 26.8145 109.443 26.8145C110.123 26.8145 110.709 26.9316 111.201 27.166C111.699 27.4004 112.106 27.7285 112.423 28.1504C112.739 28.5664 112.974 29.0586 113.126 29.627C113.278 30.1895 113.354 30.8047 113.354 31.4727V32.2021H106.253V30.875H111.729V30.752C111.705 30.3301 111.617 29.9199 111.465 29.5215C111.318 29.123 111.084 28.7949 110.762 28.5371C110.439 28.2793 110 28.1504 109.443 28.1504C109.074 28.1504 108.734 28.2295 108.424 28.3877C108.113 28.54 107.847 28.7686 107.624 29.0732C107.401 29.3779 107.229 29.75 107.105 30.1895C106.982 30.6289 106.921 31.1357 106.921 31.71V32.0791C106.921 32.5303 106.982 32.9551 107.105 33.3535C107.234 33.7461 107.419 34.0918 107.659 34.3906C107.905 34.6895 108.201 34.9238 108.547 35.0938C108.898 35.2637 109.297 35.3486 109.742 35.3486C110.316 35.3486 110.803 35.2314 111.201 34.9971C111.6 34.7627 111.948 34.4492 112.247 34.0566L113.231 34.8389C113.026 35.1494 112.766 35.4453 112.449 35.7266C112.133 36.0078 111.743 36.2363 111.28 36.4121C110.823 36.5879 110.281 36.6758 109.654 36.6758ZM125.725 34.874V29.9785C125.725 29.6035 125.649 29.2783 125.497 29.0029C125.35 28.7217 125.128 28.5049 124.829 28.3525C124.53 28.2002 124.161 28.124 123.721 28.124C123.311 28.124 122.951 28.1943 122.64 28.335C122.336 28.4756 122.095 28.6602 121.92 28.8887C121.75 29.1172 121.665 29.3633 121.665 29.627H120.039C120.039 29.2871 120.127 28.9502 120.302 28.6162C120.478 28.2822 120.73 27.9805 121.058 27.7109C121.392 27.4355 121.791 27.2188 122.254 27.0605C122.722 26.8965 123.244 26.8145 123.818 26.8145C124.509 26.8145 125.119 26.9316 125.646 27.166C126.179 27.4004 126.595 27.7549 126.894 28.2295C127.199 28.6982 127.351 29.2871 127.351 29.9961V34.4258C127.351 34.7422 127.378 35.0791 127.43 35.4365C127.489 35.7939 127.574 36.1016 127.685 36.3594V36.5H125.989C125.907 36.3125 125.842 36.0635 125.796 35.7529C125.749 35.4365 125.725 35.1436 125.725 34.874ZM126.006 30.7344L126.024 31.877H124.38C123.918 31.877 123.504 31.915 123.141 31.9912C122.778 32.0615 122.473 32.1699 122.227 32.3164C121.981 32.4629 121.794 32.6475 121.665 32.8701C121.536 33.0869 121.471 33.3418 121.471 33.6348C121.471 33.9336 121.539 34.2061 121.673 34.4521C121.808 34.6982 122.01 34.8945 122.28 35.041C122.555 35.1816 122.892 35.252 123.291 35.252C123.789 35.252 124.228 35.1465 124.609 34.9355C124.99 34.7246 125.292 34.4668 125.514 34.1621C125.743 33.8574 125.866 33.5615 125.883 33.2744L126.578 34.0566C126.537 34.3027 126.425 34.5752 126.244 34.874C126.062 35.1729 125.819 35.46 125.514 35.7354C125.215 36.0049 124.858 36.2305 124.442 36.4121C124.032 36.5879 123.569 36.6758 123.053 36.6758C122.409 36.6758 121.843 36.5498 121.357 36.2979C120.877 36.0459 120.502 35.709 120.232 35.2871C119.968 34.8594 119.837 34.3818 119.837 33.8545C119.837 33.3447 119.936 32.8965 120.135 32.5098C120.335 32.1172 120.622 31.792 120.997 31.5342C121.372 31.2705 121.823 31.0713 122.35 30.9365C122.878 30.8018 123.466 30.7344 124.117 30.7344H126.006ZM136.4 28.4844V36.5H134.774V26.9902H136.356L136.4 28.4844ZM139.37 26.9375L139.362 28.4492C139.227 28.4199 139.098 28.4023 138.975 28.3965C138.858 28.3848 138.723 28.3789 138.571 28.3789C138.196 28.3789 137.864 28.4375 137.577 28.5547C137.29 28.6719 137.047 28.8359 136.848 29.0469C136.649 29.2578 136.49 29.5098 136.373 29.8027C136.262 30.0898 136.189 30.4062 136.154 30.752L135.696 31.0156C135.696 30.4414 135.752 29.9023 135.863 29.3984C135.981 28.8945 136.159 28.4492 136.4 28.0625C136.64 27.6699 136.945 27.3652 137.314 27.1484C137.689 26.9258 138.134 26.8145 138.65 26.8145C138.767 26.8145 138.902 26.8291 139.054 26.8584C139.206 26.8818 139.312 26.9082 139.37 26.9375ZM140.467 31.8506V31.6484C140.467 30.9629 140.566 30.3271 140.766 29.7412C140.965 29.1494 141.252 28.6367 141.627 28.2031C142.002 27.7637 142.456 27.4238 142.989 27.1836C143.522 26.9375 144.12 26.8145 144.782 26.8145C145.45 26.8145 146.051 26.9375 146.584 27.1836C147.123 27.4238 147.58 27.7637 147.955 28.2031C148.336 28.6367 148.626 29.1494 148.825 29.7412C149.024 30.3271 149.124 30.9629 149.124 31.6484V31.8506C149.124 32.5361 149.024 33.1719 148.825 33.7578C148.626 34.3438 148.336 34.8564 147.955 35.2959C147.58 35.7295 147.126 36.0693 146.593 36.3154C146.065 36.5557 145.468 36.6758 144.8 36.6758C144.132 36.6758 143.531 36.5557 142.998 36.3154C142.465 36.0693 142.008 35.7295 141.627 35.2959C141.252 34.8564 140.965 34.3438 140.766 33.7578C140.566 33.1719 140.467 32.5361 140.467 31.8506ZM142.093 31.6484V31.8506C142.093 32.3252 142.148 32.7734 142.26 33.1953C142.371 33.6113 142.538 33.9805 142.761 34.3027C142.989 34.625 143.273 34.8799 143.613 35.0674C143.953 35.249 144.349 35.3398 144.8 35.3398C145.245 35.3398 145.635 35.249 145.969 35.0674C146.309 34.8799 146.59 34.625 146.812 34.3027C147.035 33.9805 147.202 33.6113 147.313 33.1953C147.431 32.7734 147.489 32.3252 147.489 31.8506V31.6484C147.489 31.1797 147.431 30.7373 147.313 30.3213C147.202 29.8994 147.032 29.5273 146.804 29.2051C146.581 28.877 146.3 28.6191 145.96 28.4316C145.626 28.2441 145.233 28.1504 144.782 28.1504C144.337 28.1504 143.944 28.2441 143.604 28.4316C143.271 28.6191 142.989 28.877 142.761 29.2051C142.538 29.5273 142.371 29.8994 142.26 30.3213C142.148 30.7373 142.093 31.1797 142.093 31.6484ZM150.932 31.8506V31.6484C150.932 30.9629 151.032 30.3271 151.231 29.7412C151.43 29.1494 151.718 28.6367 152.093 28.2031C152.468 27.7637 152.922 27.4238 153.455 27.1836C153.988 26.9375 154.586 26.8145 155.248 26.8145C155.916 26.8145 156.516 26.9375 157.05 27.1836C157.589 27.4238 158.046 27.7637 158.421 28.2031C158.802 28.6367 159.092 29.1494 159.291 29.7412C159.49 30.3271 159.59 30.9629 159.59 31.6484V31.8506C159.59 32.5361 159.49 33.1719 159.291 33.7578C159.092 34.3438 158.802 34.8564 158.421 35.2959C158.046 35.7295 157.592 36.0693 157.058 36.3154C156.531 36.5557 155.933 36.6758 155.265 36.6758C154.597 36.6758 153.997 36.5557 153.464 36.3154C152.93 36.0693 152.473 35.7295 152.093 35.2959C151.718 34.8564 151.43 34.3438 151.231 33.7578C151.032 33.1719 150.932 32.5361 150.932 31.8506ZM152.558 31.6484V31.8506C152.558 32.3252 152.614 32.7734 152.725 33.1953C152.837 33.6113 153.004 33.9805 153.226 34.3027C153.455 34.625 153.739 34.8799 154.079 35.0674C154.419 35.249 154.814 35.3398 155.265 35.3398C155.711 35.3398 156.1 35.249 156.434 35.0674C156.774 34.8799 157.055 34.625 157.278 34.3027C157.501 33.9805 157.668 33.6113 157.779 33.1953C157.896 32.7734 157.955 32.3252 157.955 31.8506V31.6484C157.955 31.1797 157.896 30.7373 157.779 30.3213C157.668 29.8994 157.498 29.5273 157.269 29.2051C157.047 28.877 156.765 28.6191 156.426 28.4316C156.092 28.2441 155.699 28.1504 155.248 28.1504C154.803 28.1504 154.41 28.2441 154.07 28.4316C153.736 28.6191 153.455 28.877 153.226 29.2051C153.004 29.5273 152.837 29.8994 152.725 30.3213C152.614 30.7373 152.558 31.1797 152.558 31.6484ZM163.446 28.8799V36.5H161.811V26.9902H163.358L163.446 28.8799ZM163.112 31.3848L162.356 31.3584C162.362 30.708 162.447 30.1074 162.611 29.5566C162.775 29 163.018 28.5166 163.34 28.1064C163.663 27.6963 164.064 27.3799 164.545 27.1572C165.025 26.9287 165.582 26.8145 166.214 26.8145C166.66 26.8145 167.07 26.8789 167.445 27.0078C167.82 27.1309 168.145 27.3271 168.421 27.5967C168.696 27.8662 168.91 28.2119 169.062 28.6338C169.214 29.0557 169.291 29.5654 169.291 30.1631V36.5H167.665V30.2422C167.665 29.7441 167.58 29.3457 167.41 29.0469C167.246 28.748 167.011 28.5312 166.707 28.3965C166.402 28.2559 166.045 28.1855 165.634 28.1855C165.154 28.1855 164.753 28.2705 164.43 28.4404C164.108 28.6104 163.85 28.8447 163.657 29.1436C163.463 29.4424 163.323 29.7852 163.235 30.1719C163.153 30.5527 163.112 30.957 163.112 31.3848ZM169.273 30.4883L168.183 30.8223C168.189 30.3008 168.274 29.7998 168.438 29.3193C168.608 28.8389 168.851 28.4111 169.168 28.0361C169.49 27.6611 169.885 27.3652 170.354 27.1484C170.823 26.9258 171.359 26.8145 171.963 26.8145C172.472 26.8145 172.923 26.8818 173.316 27.0166C173.714 27.1514 174.048 27.3594 174.318 27.6406C174.593 27.916 174.801 28.2705 174.942 28.7041C175.083 29.1377 175.153 29.6533 175.153 30.251V36.5H173.518V30.2334C173.518 29.7002 173.433 29.2871 173.263 28.9941C173.099 28.6953 172.865 28.4873 172.56 28.3701C172.261 28.2471 171.904 28.1855 171.488 28.1855C171.13 28.1855 170.814 28.2471 170.539 28.3701C170.263 28.4932 170.032 28.6631 169.844 28.8799C169.657 29.0908 169.513 29.334 169.414 29.6094C169.32 29.8848 169.273 30.1777 169.273 30.4883ZM188.086 34.874V29.9785C188.086 29.6035 188.01 29.2783 187.858 29.0029C187.711 28.7217 187.488 28.5049 187.19 28.3525C186.891 28.2002 186.522 28.124 186.082 28.124C185.672 28.124 185.312 28.1943 185.001 28.335C184.696 28.4756 184.456 28.6602 184.28 28.8887C184.111 29.1172 184.026 29.3633 184.026 29.627H182.4C182.4 29.2871 182.488 28.9502 182.663 28.6162C182.839 28.2822 183.091 27.9805 183.419 27.7109C183.753 27.4355 184.152 27.2188 184.614 27.0605C185.083 26.8965 185.605 26.8145 186.179 26.8145C186.87 26.8145 187.48 26.9316 188.007 27.166C188.54 27.4004 188.956 27.7549 189.255 28.2295C189.56 28.6982 189.712 29.2871 189.712 29.9961V34.4258C189.712 34.7422 189.738 35.0791 189.791 35.4365C189.85 35.7939 189.935 36.1016 190.046 36.3594V36.5H188.35C188.268 36.3125 188.203 36.0635 188.156 35.7529C188.11 35.4365 188.086 35.1436 188.086 34.874ZM188.367 30.7344L188.385 31.877H186.741C186.279 31.877 185.865 31.915 185.502 31.9912C185.139 32.0615 184.834 32.1699 184.588 32.3164C184.342 32.4629 184.154 32.6475 184.026 32.8701C183.897 33.0869 183.832 33.3418 183.832 33.6348C183.832 33.9336 183.9 34.2061 184.034 34.4521C184.169 34.6982 184.371 34.8945 184.641 35.041C184.916 35.1816 185.253 35.252 185.652 35.252C186.15 35.252 186.589 35.1465 186.97 34.9355C187.351 34.7246 187.653 34.4668 187.875 34.1621C188.104 33.8574 188.227 33.5615 188.244 33.2744L188.939 34.0566C188.898 34.3027 188.786 34.5752 188.605 34.874C188.423 35.1729 188.18 35.46 187.875 35.7354C187.576 36.0049 187.219 36.2305 186.803 36.4121C186.393 36.5879 185.93 36.6758 185.414 36.6758C184.77 36.6758 184.204 36.5498 183.718 36.2979C183.238 36.0459 182.863 35.709 182.593 35.2871C182.329 34.8594 182.197 34.3818 182.197 33.8545C182.197 33.3447 182.297 32.8965 182.496 32.5098C182.696 32.1172 182.983 31.792 183.358 31.5342C183.733 31.2705 184.184 31.0713 184.711 30.9365C185.238 30.8018 185.827 30.7344 186.478 30.7344H188.367ZM194.096 29.0205V36.5H192.47V26.9902H194.008L194.096 29.0205ZM193.709 31.3848L193.032 31.3584C193.038 30.708 193.135 30.1074 193.322 29.5566C193.51 29 193.773 28.5166 194.113 28.1064C194.453 27.6963 194.857 27.3799 195.326 27.1572C195.801 26.9287 196.325 26.8145 196.899 26.8145C197.368 26.8145 197.79 26.8789 198.165 27.0078C198.54 27.1309 198.859 27.3301 199.123 27.6055C199.393 27.8809 199.598 28.2383 199.738 28.6777C199.879 29.1113 199.949 29.6416 199.949 30.2686V36.5H198.314V30.251C198.314 29.7529 198.241 29.3545 198.095 29.0557C197.948 28.751 197.734 28.5312 197.453 28.3965C197.172 28.2559 196.826 28.1855 196.416 28.1855C196.012 28.1855 195.643 28.2705 195.309 28.4404C194.98 28.6104 194.696 28.8447 194.456 29.1436C194.222 29.4424 194.037 29.7852 193.902 30.1719C193.773 30.5527 193.709 30.957 193.709 31.3848ZM208.613 34.6543V23H210.248V36.5H208.754L208.613 34.6543ZM202.215 31.8506V31.666C202.215 30.9395 202.303 30.2803 202.478 29.6885C202.66 29.0908 202.915 28.5781 203.243 28.1504C203.577 27.7227 203.972 27.3945 204.429 27.166C204.892 26.9316 205.408 26.8145 205.976 26.8145C206.574 26.8145 207.096 26.9199 207.541 27.1309C207.992 27.3359 208.373 27.6377 208.683 28.0361C209 28.4287 209.249 28.9033 209.43 29.46C209.612 30.0166 209.738 30.6465 209.808 31.3496V32.1582C209.744 32.8555 209.618 33.4824 209.43 34.0391C209.249 34.5957 209 35.0703 208.683 35.4629C208.373 35.8555 207.992 36.1572 207.541 36.3682C207.09 36.5732 206.562 36.6758 205.959 36.6758C205.402 36.6758 204.892 36.5557 204.429 36.3154C203.972 36.0752 203.577 35.7383 203.243 35.3047C202.915 34.8711 202.66 34.3613 202.478 33.7754C202.303 33.1836 202.215 32.542 202.215 31.8506ZM203.849 31.666V31.8506C203.849 32.3252 203.896 32.7705 203.99 33.1865C204.09 33.6025 204.242 33.9688 204.447 34.2852C204.652 34.6016 204.913 34.8506 205.229 35.0322C205.546 35.208 205.924 35.2959 206.363 35.2959C206.902 35.2959 207.345 35.1816 207.69 34.9531C208.042 34.7246 208.323 34.4229 208.534 34.0479C208.745 33.6729 208.909 33.2656 209.026 32.8262V30.708C208.956 30.3857 208.853 30.0752 208.719 29.7764C208.59 29.4717 208.42 29.2021 208.209 28.9678C208.004 28.7275 207.749 28.5371 207.444 28.3965C207.145 28.2559 206.791 28.1855 206.381 28.1855C205.935 28.1855 205.552 28.2793 205.229 28.4668C204.913 28.6484 204.652 28.9004 204.447 29.2227C204.242 29.5391 204.09 29.9082 203.99 30.3301C203.896 30.7461 203.849 31.1914 203.849 31.666ZM219.27 28.8184V40.1562H217.635V26.9902H219.129L219.27 28.8184ZM225.677 31.666V31.8506C225.677 32.542 225.595 33.1836 225.431 33.7754C225.267 34.3613 225.027 34.8711 224.71 35.3047C224.4 35.7383 224.016 36.0752 223.559 36.3154C223.102 36.5557 222.578 36.6758 221.986 36.6758C221.382 36.6758 220.849 36.5762 220.386 36.377C219.923 36.1777 219.531 35.8877 219.208 35.5068C218.886 35.126 218.628 34.6689 218.435 34.1357C218.247 33.6025 218.119 33.002 218.048 32.334V31.3496C218.119 30.6465 218.25 30.0166 218.444 29.46C218.637 28.9033 218.892 28.4287 219.208 28.0361C219.531 27.6377 219.92 27.3359 220.377 27.1309C220.834 26.9199 221.362 26.8145 221.959 26.8145C222.557 26.8145 223.087 26.9316 223.55 27.166C224.013 27.3945 224.403 27.7227 224.719 28.1504C225.036 28.5781 225.273 29.0908 225.431 29.6885C225.595 30.2803 225.677 30.9395 225.677 31.666ZM224.042 31.8506V31.666C224.042 31.1914 223.993 30.7461 223.893 30.3301C223.793 29.9082 223.638 29.5391 223.427 29.2227C223.222 28.9004 222.958 28.6484 222.636 28.4668C222.314 28.2793 221.93 28.1855 221.485 28.1855C221.075 28.1855 220.717 28.2559 220.413 28.3965C220.114 28.5371 219.859 28.7275 219.648 28.9678C219.437 29.2021 219.264 29.4717 219.129 29.7764C219 30.0752 218.904 30.3857 218.839 30.708V32.9844C218.956 33.3945 219.121 33.7812 219.331 34.1445C219.542 34.502 219.824 34.792 220.175 35.0146C220.527 35.2314 220.969 35.3398 221.502 35.3398C221.942 35.3398 222.32 35.249 222.636 35.0674C222.958 34.8799 223.222 34.625 223.427 34.3027C223.638 33.9805 223.793 33.6113 223.893 33.1953C223.993 32.7734 224.042 32.3252 224.042 31.8506ZM231.898 36.6758C231.236 36.6758 230.635 36.5645 230.096 36.3418C229.563 36.1133 229.103 35.7939 228.716 35.3838C228.335 34.9736 228.042 34.4873 227.837 33.9248C227.632 33.3623 227.529 32.7471 227.529 32.0791V31.71C227.529 30.9365 227.644 30.248 227.872 29.6445C228.101 29.0352 228.411 28.5195 228.804 28.0977C229.196 27.6758 229.642 27.3564 230.14 27.1396C230.638 26.9229 231.154 26.8145 231.687 26.8145C232.366 26.8145 232.952 26.9316 233.445 27.166C233.943 27.4004 234.35 27.7285 234.666 28.1504C234.983 28.5664 235.217 29.0586 235.369 29.627C235.522 30.1895 235.598 30.8047 235.598 31.4727V32.2021H228.496V30.875H233.972V30.752C233.948 30.3301 233.861 29.9199 233.708 29.5215C233.562 29.123 233.327 28.7949 233.005 28.5371C232.683 28.2793 232.243 28.1504 231.687 28.1504C231.318 28.1504 230.978 28.2295 230.667 28.3877C230.357 28.54 230.09 28.7686 229.867 29.0732C229.645 29.3779 229.472 29.75 229.349 30.1895C229.226 30.6289 229.164 31.1357 229.164 31.71V32.0791C229.164 32.5303 229.226 32.9551 229.349 33.3535C229.478 33.7461 229.662 34.0918 229.903 34.3906C230.149 34.6895 230.445 34.9238 230.79 35.0938C231.142 35.2637 231.54 35.3486 231.986 35.3486C232.56 35.3486 233.046 35.2314 233.445 34.9971C233.843 34.7627 234.192 34.4492 234.49 34.0566L235.475 34.8389C235.27 35.1494 235.009 35.4453 234.693 35.7266C234.376 36.0078 233.987 36.2363 233.524 36.4121C233.067 36.5879 232.525 36.6758 231.898 36.6758ZM239.322 28.4844V36.5H237.696V26.9902H239.278L239.322 28.4844ZM242.293 26.9375L242.284 28.4492C242.149 28.4199 242.021 28.4023 241.897 28.3965C241.78 28.3848 241.646 28.3789 241.493 28.3789C241.118 28.3789 240.787 28.4375 240.5 28.5547C240.213 28.6719 239.97 28.8359 239.771 29.0469C239.571 29.2578 239.413 29.5098 239.296 29.8027C239.185 30.0898 239.111 30.4062 239.076 30.752L238.619 31.0156C238.619 30.4414 238.675 29.9023 238.786 29.3984C238.903 28.8945 239.082 28.4492 239.322 28.0625C239.562 27.6699 239.867 27.3652 240.236 27.1484C240.611 26.9258 241.057 26.8145 241.572 26.8145C241.689 26.8145 241.824 26.8291 241.977 26.8584C242.129 26.8818 242.234 26.9082 242.293 26.9375ZM249.533 33.9775C249.533 33.7432 249.48 33.5264 249.375 33.3271C249.275 33.1221 249.067 32.9375 248.751 32.7734C248.44 32.6035 247.971 32.457 247.345 32.334C246.817 32.2227 246.34 32.0908 245.912 31.9385C245.49 31.7861 245.13 31.6016 244.831 31.3848C244.538 31.168 244.312 30.9131 244.154 30.6201C243.996 30.3271 243.917 29.9844 243.917 29.5918C243.917 29.2168 243.999 28.8623 244.163 28.5283C244.333 28.1943 244.57 27.8984 244.875 27.6406C245.185 27.3828 245.557 27.1807 245.991 27.0342C246.425 26.8877 246.908 26.8145 247.441 26.8145C248.203 26.8145 248.853 26.9492 249.392 27.2188C249.931 27.4883 250.345 27.8486 250.632 28.2998C250.919 28.7451 251.062 29.2402 251.062 29.7852H249.436C249.436 29.5215 249.357 29.2666 249.199 29.0205C249.047 28.7686 248.821 28.5605 248.522 28.3965C248.229 28.2324 247.869 28.1504 247.441 28.1504C246.99 28.1504 246.624 28.2207 246.343 28.3613C246.067 28.4961 245.865 28.6689 245.736 28.8799C245.613 29.0908 245.552 29.3135 245.552 29.5479C245.552 29.7236 245.581 29.8818 245.639 30.0225C245.704 30.1572 245.815 30.2832 245.973 30.4004C246.132 30.5117 246.354 30.6172 246.641 30.7168C246.929 30.8164 247.295 30.916 247.74 31.0156C248.519 31.1914 249.161 31.4023 249.665 31.6484C250.169 31.8945 250.544 32.1963 250.79 32.5537C251.036 32.9111 251.159 33.3447 251.159 33.8545C251.159 34.2705 251.071 34.6514 250.895 34.9971C250.725 35.3428 250.476 35.6416 250.148 35.8936C249.826 36.1396 249.439 36.333 248.988 36.4736C248.543 36.6084 248.042 36.6758 247.485 36.6758C246.647 36.6758 245.938 36.5264 245.358 36.2275C244.778 35.9287 244.339 35.542 244.04 35.0674C243.741 34.5928 243.592 34.0918 243.592 33.5645H245.226C245.25 34.0098 245.379 34.3643 245.613 34.6279C245.847 34.8857 246.135 35.0703 246.474 35.1816C246.814 35.2871 247.151 35.3398 247.485 35.3398C247.93 35.3398 248.303 35.2812 248.601 35.1641C248.906 35.0469 249.137 34.8857 249.296 34.6807C249.454 34.4756 249.533 34.2412 249.533 33.9775ZM253.064 31.8506V31.6484C253.064 30.9629 253.164 30.3271 253.363 29.7412C253.562 29.1494 253.849 28.6367 254.224 28.2031C254.599 27.7637 255.053 27.4238 255.587 27.1836C256.12 26.9375 256.717 26.8145 257.379 26.8145C258.047 26.8145 258.648 26.9375 259.181 27.1836C259.72 27.4238 260.177 27.7637 260.552 28.2031C260.933 28.6367 261.223 29.1494 261.422 29.7412C261.622 30.3271 261.721 30.9629 261.721 31.6484V31.8506C261.721 32.5361 261.622 33.1719 261.422 33.7578C261.223 34.3438 260.933 34.8564 260.552 35.2959C260.177 35.7295 259.723 36.0693 259.19 36.3154C258.663 36.5557 258.065 36.6758 257.397 36.6758C256.729 36.6758 256.129 36.5557 255.595 36.3154C255.062 36.0693 254.605 35.7295 254.224 35.2959C253.849 34.8564 253.562 34.3438 253.363 33.7578C253.164 33.1719 253.064 32.5361 253.064 31.8506ZM254.69 31.6484V31.8506C254.69 32.3252 254.746 32.7734 254.857 33.1953C254.968 33.6113 255.135 33.9805 255.358 34.3027C255.587 34.625 255.871 34.8799 256.211 35.0674C256.55 35.249 256.946 35.3398 257.397 35.3398C257.842 35.3398 258.232 35.249 258.566 35.0674C258.906 34.8799 259.187 34.625 259.41 34.3027C259.632 33.9805 259.799 33.6113 259.911 33.1953C260.028 32.7734 260.087 32.3252 260.087 31.8506V31.6484C260.087 31.1797 260.028 30.7373 259.911 30.3213C259.799 29.8994 259.629 29.5273 259.401 29.2051C259.178 28.877 258.897 28.6191 258.557 28.4316C258.223 28.2441 257.831 28.1504 257.379 28.1504C256.934 28.1504 256.542 28.2441 256.202 28.4316C255.868 28.6191 255.587 28.877 255.358 29.2051C255.135 29.5273 254.968 29.8994 254.857 30.3213C254.746 30.7373 254.69 31.1797 254.69 31.6484ZM265.586 29.0205V36.5H263.96V26.9902H265.498L265.586 29.0205ZM265.2 31.3848L264.523 31.3584C264.529 30.708 264.625 30.1074 264.813 29.5566C265 29 265.264 28.5166 265.604 28.1064C265.944 27.6963 266.348 27.3799 266.817 27.1572C267.291 26.9287 267.816 26.8145 268.39 26.8145C268.859 26.8145 269.281 26.8789 269.656 27.0078C270.031 27.1309 270.35 27.3301 270.614 27.6055C270.883 27.8809 271.088 28.2383 271.229 28.6777C271.37 29.1113 271.44 29.6416 271.44 30.2686V36.5H269.805V30.251C269.805 29.7529 269.732 29.3545 269.585 29.0557C269.439 28.751 269.225 28.5312 268.944 28.3965C268.663 28.2559 268.317 28.1855 267.907 28.1855C267.502 28.1855 267.133 28.2705 266.799 28.4404C266.471 28.6104 266.187 28.8447 265.947 29.1436C265.712 29.4424 265.528 29.7852 265.393 30.1719C265.264 30.5527 265.2 30.957 265.2 31.3848Z" fill="#C0C0C0"/>
<path d="M349.057 33.8587C349.009 33.8116 348.803 33.6338 348.633 33.4682C347.563 32.4972 345.813 29.9644 345.279 28.6387C345.193 28.4373 345.012 27.9283 345 27.6564C345 27.3958 345.06 27.1473 345.182 26.9103C345.352 26.6148 345.619 26.3777 345.935 26.2478C346.154 26.1642 346.81 26.0343 346.822 26.0343C347.539 25.9044 348.705 25.833 349.993 25.833C351.221 25.833 352.339 25.9044 353.067 26.0108C353.079 26.023 353.894 26.1529 354.173 26.2949C354.683 26.5555 355 27.0645 355 27.6093V27.6564C354.988 28.0111 354.671 28.7572 354.659 28.7572C354.124 30.0114 352.46 32.4859 351.354 33.4804C351.354 33.4804 351.07 33.7604 350.892 33.8822C350.637 34.0722 350.322 34.1663 350.006 34.1663C349.653 34.1663 349.325 34.06 349.057 33.8587Z" fill="#153B63"/>
</svg>
