<svg width="28" height="28" viewBox="0 0 28 28" fill="none" xmlns="http://www.w3.org/2000/svg">
<path fill-rule="evenodd" clip-rule="evenodd" d="M9.11167 2.33301H18.8895C22.4933 2.33301 24.5 4.40967 24.5 7.96801V20.0197C24.5 23.6363 22.4933 25.6663 18.8895 25.6663H9.11167C5.565 25.6663 3.5 23.6363 3.5 20.0197V7.96801C3.5 4.40967 5.565 2.33301 9.11167 2.33301ZM9.42667 7.76967V7.75801H12.9138C13.4167 7.75801 13.825 8.16634 13.825 8.66684C13.825 9.18134 13.4167 9.58967 12.9138 9.58967H9.42667C8.92383 9.58967 8.51667 9.18134 8.51667 8.67968C8.51667 8.17801 8.92383 7.76967 9.42667 7.76967ZM9.42667 14.863H18.5733C19.075 14.863 19.4833 14.4547 19.4833 13.953C19.4833 13.4513 19.075 13.0418 18.5733 13.0418H9.42667C8.92383 13.0418 8.51667 13.4513 8.51667 13.953C8.51667 14.4547 8.92383 14.863 9.42667 14.863ZM9.42667 20.1947H18.5733C19.0388 20.148 19.39 19.7502 19.39 19.2847C19.39 18.8063 19.0388 18.4097 18.5733 18.363H9.42667C9.07667 18.328 8.73833 18.4913 8.55167 18.7947C8.365 19.0863 8.365 19.4713 8.55167 19.7747C8.73833 20.0663 9.07667 20.2413 9.42667 20.1947Z" fill="#03A9F4"/>
</svg>
