<svg width="18" height="16" viewBox="0 0 18 16" fill="none" xmlns="http://www.w3.org/2000/svg">
<path fill-rule="evenodd" clip-rule="evenodd" d="M10.8435 4.46868C10.8435 6.67181 9.04063 8.43735 6.79095 8.43735C4.54208 8.43735 2.73843 6.67181 2.73843 4.46868C2.73843 2.26554 4.54208 0.5 6.79095 0.5C9.04063 0.5 10.8435 2.26554 10.8435 4.46868ZM0.666504 12.9311C0.666504 10.8917 3.48778 10.3814 6.79095 10.3814C10.1121 10.3814 12.9154 10.9093 12.9154 12.9503C12.9154 14.9897 10.0941 15.5 6.79095 15.5C3.46984 15.5 0.666504 14.9722 0.666504 12.9311ZM12.4777 4.54062C12.4777 5.66255 12.1336 6.70942 11.5302 7.57902C11.4674 7.66845 11.5229 7.78903 11.6321 7.80819C11.7838 7.83295 11.9395 7.84812 12.0985 7.85131C13.6804 7.89204 15.1 6.89468 15.4922 5.39265C16.0736 3.16396 14.3678 1.16286 12.1947 1.16286C11.9591 1.16286 11.7332 1.18681 11.5131 1.23073C11.4829 1.23712 11.4503 1.25149 11.434 1.27705C11.4128 1.30979 11.4283 1.35211 11.4495 1.38006C12.1026 2.2768 12.4777 3.36839 12.4777 4.54062ZM15.0976 9.41858C16.1608 9.62221 16.8596 10.0366 17.1491 10.6411C17.3945 11.1362 17.3945 11.7112 17.1491 12.2062C16.7063 13.1421 15.2778 13.4432 14.7225 13.5206C14.6075 13.5366 14.5154 13.4408 14.5276 13.3274C14.8114 10.7338 12.5552 9.50402 11.9713 9.22135C11.9469 9.20777 11.9412 9.18861 11.9436 9.17583C11.9452 9.16784 11.9558 9.15507 11.9746 9.15267C13.2376 9.12872 14.5961 9.2988 15.0976 9.41858Z" fill="#153B63"/>
</svg>
