<svg width="9" height="9" viewBox="0 0 9 9" fill="none" xmlns="http://www.w3.org/2000/svg">
<g clip-path="url(#clip0_3250_6080)">
<path d="M6.50047 0.97168C6.12512 0.977518 5.75796 1.0823 5.43606 1.27544C5.11416 1.46858 4.84893 1.74324 4.66714 2.07168C4.48535 1.74324 4.22012 1.46858 3.89822 1.27544C3.57632 1.0823 3.20916 0.977518 2.83381 0.97168C2.23545 0.997677 1.67171 1.25943 1.26574 1.69976C0.859761 2.14008 0.644558 2.72319 0.667141 3.32168C0.667141 4.83735 2.26247 6.49268 3.60047 7.61501C3.89921 7.86606 4.27693 8.00369 4.66714 8.00369C5.05736 8.00369 5.43507 7.86606 5.73381 7.61501C7.07181 6.49268 8.66714 4.83735 8.66714 3.32168C8.68972 2.72319 8.47452 2.14008 8.06855 1.69976C7.66257 1.25943 7.09883 0.997677 6.50047 0.97168Z" fill="#FCFDFF"/>
</g>
<defs>
<clipPath id="clip0_3250_6080">
<rect width="8" height="8" fill="white" transform="translate(0.666992 0.333008)"/>
</clipPath>
</defs>
</svg>
