<svg width="24" height="24" viewBox="0 0 24 24" fill="none" xmlns="http://www.w3.org/2000/svg">
<path fill-rule="evenodd" clip-rule="evenodd" d="M1.5 5.58333C1.5 2.52059 1.53279 1.5 5.58333 1.5C9.63387 1.5 9.66667 2.52059 9.66667 5.58333C9.66667 8.64608 9.67959 9.66667 5.58333 9.66667C1.48708 9.66667 1.5 8.64608 1.5 5.58333Z" stroke="#153B63" stroke-width="1.5" stroke-linecap="round" stroke-linejoin="round"/>
<path fill-rule="evenodd" clip-rule="evenodd" d="M14.3335 5.58333C14.3335 2.52059 14.3663 1.5 18.4168 1.5C22.4674 1.5 22.5002 2.52059 22.5002 5.58333C22.5002 8.64608 22.5131 9.66667 18.4168 9.66667C14.3206 9.66667 14.3335 8.64608 14.3335 5.58333Z" stroke="#153B63" stroke-width="1.5" stroke-linecap="round" stroke-linejoin="round"/>
<path fill-rule="evenodd" clip-rule="evenodd" d="M1.5 18.4163C1.5 15.3536 1.53279 14.333 5.58333 14.333C9.63387 14.333 9.66667 15.3536 9.66667 18.4163C9.66667 21.4791 9.67959 22.4997 5.58333 22.4997C1.48708 22.4997 1.5 21.4791 1.5 18.4163Z" stroke="#153B63" stroke-width="1.5" stroke-linecap="round" stroke-linejoin="round"/>
<path fill-rule="evenodd" clip-rule="evenodd" d="M14.3335 18.4163C14.3335 15.3536 14.3663 14.333 18.4168 14.333C22.4674 14.333 22.5002 15.3536 22.5002 18.4163C22.5002 21.4791 22.5131 22.4997 18.4168 22.4997C14.3206 22.4997 14.3335 21.4791 14.3335 18.4163Z" stroke="#153B63" stroke-width="1.5" stroke-linecap="round" stroke-linejoin="round"/>
</svg>
