<svg width="8" height="9" viewBox="0 0 8 9" fill="none" xmlns="http://www.w3.org/2000/svg">
<g clip-path="url(#clip0_3250_6069)">
<path d="M7.59084 2.90713C7.43453 2.72699 7.24135 2.58255 7.02436 2.48358C6.80738 2.3846 6.57166 2.33341 6.33317 2.33346H5.0035L5.1155 1.65313C5.15513 1.41355 5.10732 1.1677 4.98079 0.960439C4.85426 0.753174 4.65744 0.598297 4.42624 0.524056C4.19503 0.449816 3.94484 0.461159 3.7213 0.556018C3.49775 0.650876 3.31576 0.822928 3.2085 1.04079L2.6665 2.13913V7.33346H6.09984C6.50099 7.33182 6.88823 7.18623 7.1911 6.92318C7.49398 6.66013 7.69236 6.2971 7.75017 5.90013L7.98517 4.23346C8.0184 3.99703 8.00038 3.75623 7.93234 3.52738C7.8643 3.29853 7.74783 3.087 7.59084 2.90713Z" fill="#FCFDFF"/>
<path d="M0 3.99967V5.66634C0.000529286 6.10821 0.176294 6.53182 0.48874 6.84427C0.801186 7.15671 1.2248 7.33248 1.66667 7.33301H2V2.33301H1.66667C1.2248 2.33354 0.801186 2.5093 0.48874 2.82175C0.176294 3.13419 0.000529286 3.55781 0 3.99967H0Z" fill="#FCFDFF"/>
</g>
<defs>
<clipPath id="clip0_3250_6069">
<rect width="8" height="8" fill="white" transform="translate(0 0.333008)"/>
</clipPath>
</defs>
</svg>
